<svg xmlns="http://www.w3.org/2000/svg" width="280" height="75.182" viewBox="0 0 280 75.182"><g transform="translate(0 0.02)"><path d="M107.47,251.055a37.591,37.591,0,1,1,37.588,37.586,37.592,37.592,0,0,1-37.588-37.586Z" transform="translate(-107.47 -213.48)" fill="#00669a"/><path d="M681.754,251.29h17.57l-8.856,35.152c-1.786,6.538-.268,7.9-.268,7.9H671a33.6,33.6,0,0,0,3.269-6.945l7.083-28.873c1.362-5.449.406-7.217.406-7.217Z" transform="translate(-419.324 -234.415)" fill="#00669a"/><path d="M395.3,276.451c9.535,0,5.993,10.759,5.993,10.759l-3.126,13.072c-1.786,6.538-.272,7.9-.272,7.9H378.7a33.6,33.6,0,0,0,3.269-6.945l4.252-16.457a1.46,1.46,0,0,0-1.451-1.929h-7.382a2.635,2.635,0,0,0-2.412,1.929l-3.765,15.52c-1.786,6.538-.281,7.9-.281,7.9h-19.2a33.6,33.6,0,0,0,3.269-6.945l4.086-17.708c1.362-5.449.411-7.217.411-7.217h16.475l-.134,3.126s1.639-3,4.359-3Z" transform="translate(-242.636 -248.272)" fill="#00669a"/><path d="M292.893,276.6c9.535,0,6,10.759,6,10.759l-3.265,13.09c-1.786,6.538-.277,7.9-.277,7.9H278.861l.134-3s-2.313,3-4.086,3h-16.35c-8.441,0-5.516-9.937-5.516-9.937l.143-.683s1.84-10.759,11.371-10.759h14.573c2.657,0,3.952-.067,4.493-2.041a1.56,1.56,0,0,0-1.63-2.046H259.527l.545-6.252Zm-22.8,18.632A2.631,2.631,0,0,1,272.5,293.3l8.682-.089-1.733,7.056a2.635,2.635,0,0,1-2.412,1.934H270.17a1.46,1.46,0,0,1-1.447-1.934l1.362-5.038Z" transform="translate(-187.758 -248.421)" fill="#00669a" fill-rule="evenodd"/><path d="M499.685,251.29H517.1l-8.838,35.152c-1.786,6.538-.272,7.9-.272,7.9H491.508l-.134-3s-2.045,3-3.814,3H471.482c-8.445,0-5.806-9.937-5.806-9.937l2.791-11.031s1.84-10.759,11.371-10.759h14.573c2.724,0,2.858,3,2.858,3l1.84-7.083c1.34-5.449.545-7.217.545-7.217Zm-14.474,19.651a2.63,2.63,0,0,1,2.412-1.929h6.864a1.456,1.456,0,0,1,1.447,1.929L492.1,286.282a2.639,2.639,0,0,1-2.412,1.934h-6.864a1.46,1.46,0,0,1-1.447-1.934Z" transform="translate(-305.483 -234.415)" fill="#00669a" fill-rule="evenodd"/><path d="M588.457,299.213c-.545,1.907.956,3,2.59,3h17.976a13.913,13.913,0,0,0,5.31-1.362l-3.126,7.49H578.252c-8.445,0-5.806-9.937-5.806-9.937l2.8-11.031s1.835-10.759,11.371-10.759H612.02c9.53,0,5.984,10.759,5.984,10.759l-2.045,8.441H589.274l-.817,3.408Zm13.349-9.535,1.116-4.743a1.456,1.456,0,0,0-1.447-1.929H594.1a2.639,2.639,0,0,0-2.416,1.929l-1.05,4.743Z" transform="translate(-364.569 -248.427)" fill="#00669a" fill-rule="evenodd"/><path d="M189.67,270.9a2.635,2.635,0,0,1,2.412-1.929h6.864a1.456,1.456,0,0,1,1.447,1.929l-3.836,15.341a2.635,2.635,0,0,1-2.412,1.934h-6.869a1.46,1.46,0,0,1-1.447-1.934ZM177.045,251.25s.956,1.786-.406,7.217l-6.949,27.953c-1.5,6.521-3.689,7.883-3.689,7.883h16.48l1.635-3s.545,3,2.313,3h16.341c8.445,0,10.486-9.937,10.486-9.937l2.724-11.031s3.542-10.759-5.989-10.759H195.422c-2.72,0-4.354,3-4.354,3l3.542-14.291Z" transform="translate(-139.86 -234.393)" fill="#fff" fill-rule="evenodd"/><path d="M256.57,368.352l3.484-9.066h1.317l3.7,9.066H263.7l-1.054-2.747h-3.814l-.987,2.747Zm2.621-3.72h3.091l-.951-2.51c-.29-.773-.5-1.407-.643-1.9a13.957,13.957,0,0,1-.509,1.746Zm14.059-5.359h1.206v5.243a6.342,6.342,0,0,1-.3,2.166,2.71,2.71,0,0,1-1.116,1.3,3.886,3.886,0,0,1-2.113.509,4.422,4.422,0,0,1-2.09-.447,2.493,2.493,0,0,1-1.157-1.264,6.16,6.16,0,0,1-.339-2.269v-5.23h1.2v5.23a5.208,5.208,0,0,0,.219,1.746,1.7,1.7,0,0,0,.759.862,3.128,3.128,0,0,0,3.18-.29,3.459,3.459,0,0,0,.554-2.318Zm6.806,9.066v-7.99h-2.992v-1.063h7.186v1.063h-2.992v8Zm6.36-4.408a4.909,4.909,0,0,1,1.215-3.533,4.136,4.136,0,0,1,3.126-1.277,4.4,4.4,0,0,1,2.264.594,3.992,3.992,0,0,1,1.536,1.67,5.484,5.484,0,0,1,.531,2.434,5.39,5.39,0,0,1-.558,2.47,3.8,3.8,0,0,1-1.585,1.648,4.506,4.506,0,0,1-2.188.558,4.274,4.274,0,0,1-2.3-.621,3.97,3.97,0,0,1-1.532-1.688,5.137,5.137,0,0,1-.518-2.255Zm1.242,0a3.626,3.626,0,0,0,.893,2.586,3.077,3.077,0,0,0,4.435,0,3.85,3.85,0,0,0,.893-2.68,4.582,4.582,0,0,0-.38-1.925,2.8,2.8,0,0,0-1.09-1.282,2.957,2.957,0,0,0-1.621-.447,3.078,3.078,0,0,0-2.193.893,3.915,3.915,0,0,0-.893,2.912Zm10.25,4.395v-9.066h1.786l2.144,6.422c.2.594.339,1.036.447,1.34.1-.326.255-.808.482-1.456l2.18-6.306h1.608v9.066H305.4v-7.592l-2.648,7.592h-1.076l-2.622-7.726v7.726Zm11.5-4.408a4.908,4.908,0,0,1,1.215-3.533,4.144,4.144,0,0,1,3.126-1.277,4.436,4.436,0,0,1,2.269.594,3.983,3.983,0,0,1,1.532,1.67,5.485,5.485,0,0,1,.532,2.434,5.359,5.359,0,0,1-.558,2.47,3.809,3.809,0,0,1-1.581,1.648,4.532,4.532,0,0,1-2.193.558,4.248,4.248,0,0,1-2.291-.621,3.953,3.953,0,0,1-1.55-1.657,5.2,5.2,0,0,1-.518-2.255Zm1.242,0a3.608,3.608,0,0,0,.893,2.586,3.068,3.068,0,0,0,4.43,0,3.832,3.832,0,0,0,.893-2.68,4.517,4.517,0,0,0-.38-1.925,2.769,2.769,0,0,0-1.09-1.282,2.955,2.955,0,0,0-1.621-.447,3.077,3.077,0,0,0-2.193.893,3.915,3.915,0,0,0-.893,2.912Zm10.223,4.395v-9.066h3.408a4.062,4.062,0,0,1,1.661.277,2.153,2.153,0,0,1,.987.849,2.176,2.176,0,0,1,.357,1.192,2.015,2.015,0,0,1-.317,1.1,2.206,2.206,0,0,1-.951.826,2.385,2.385,0,0,1,1.268.822,2.233,2.233,0,0,1,.447,1.371,2.678,2.678,0,0,1-.268,1.188,2.234,2.234,0,0,1-.67.849,2.874,2.874,0,0,1-.987.447,6.04,6.04,0,0,1-1.469.152Zm1.206-5.257h1.961a4.77,4.77,0,0,0,1.143-.1,1.394,1.394,0,0,0,.7-.447,1.34,1.34,0,0,0,.228-.8,1.514,1.514,0,0,0-.214-.8,1.135,1.135,0,0,0-.621-.469,4.985,4.985,0,0,0-1.384-.125h-1.809Zm0,4.194h2.255a6.563,6.563,0,0,0,.822-.036,2.059,2.059,0,0,0,.7-.255,1.363,1.363,0,0,0,.447-.5,1.644,1.644,0,0,0,.179-.773,1.456,1.456,0,0,0-.268-.893,1.273,1.273,0,0,0-.719-.531,4.374,4.374,0,0,0-1.34-.152h-2.1Zm8.789,1.063v-9.066h1.206v9.066Zm4.564,0v-9.066h1.2v8H341.1v1.063Z" transform="translate(-189.981 -294.079)" fill="#f9af3b"/><path d="M450,368.385v-8h-3v-1.063h7.19v1.063H451.2v8Zm6.753,0v-9.066H463.3v1.063h-5.359v2.787h5v1.063h-5v3.091h5.583v1.063Zm16.176-3.175,1.2.3a4.127,4.127,0,0,1-1.34,2.255,3.751,3.751,0,0,1-2.394.773,4.346,4.346,0,0,1-2.385-.6,3.766,3.766,0,0,1-1.393-1.733,6.157,6.157,0,0,1-.478-2.421,5.18,5.18,0,0,1,.545-2.47,3.656,3.656,0,0,1,1.532-1.608,4.434,4.434,0,0,1,2.2-.545,3.672,3.672,0,0,1,2.282.7,3.514,3.514,0,0,1,1.291,1.938l-1.179.277a2.814,2.814,0,0,0-.893-1.434,2.42,2.42,0,0,0-1.505-.447,2.88,2.88,0,0,0-1.751.509,2.609,2.609,0,0,0-.987,1.34,5.322,5.322,0,0,0-.277,1.737,5.544,5.544,0,0,0,.339,2.028,2.448,2.448,0,0,0,1.041,1.277,2.832,2.832,0,0,0,1.532.447,2.572,2.572,0,0,0,1.711-.585,3,3,0,0,0,.938-1.719Zm4.019,3.175v-9.066h1.2v3.734h4.689v-3.734h1.228v9.066h-1.2V364.12h-4.689v4.265Zm10.375,0v-9.066h1.228l4.765,7.119v-7.119h1.152v9.066h-1.228l-4.765-7.119v7.119Zm10.656,0v-9.066h1.2v9.066Zm4.56,0v-9.066h1.2v4.5l4.511-4.5h1.621l-3.8,3.671,3.966,5.395h-1.586l-3.229-4.569-1.483,1.429v3.126Zm18.851-3.573v-1.063h3.836v3.381a7.079,7.079,0,0,1-1.822,1.063,5.3,5.3,0,0,1-1.93.357,5.131,5.131,0,0,1-2.429-.572,3.772,3.772,0,0,1-1.648-1.661,5.232,5.232,0,0,1-.558-2.416,5.71,5.71,0,0,1,.558-2.474,3.684,3.684,0,0,1,1.585-1.7,5.059,5.059,0,0,1,2.394-.554,4.747,4.747,0,0,1,1.786.313,3.087,3.087,0,0,1,1.242.893,3.841,3.841,0,0,1,.683,1.483l-1.077.3a3.4,3.4,0,0,0-.509-1.09,1.976,1.976,0,0,0-.893-.634,3.019,3.019,0,0,0-1.242-.241,3.687,3.687,0,0,0-1.42.255,2.6,2.6,0,0,0-.978.661,3.2,3.2,0,0,0-.567.893,4.779,4.779,0,0,0-.344,1.822,4.431,4.431,0,0,0,.42,2.041,2.68,2.68,0,0,0,1.215,1.215,3.673,3.673,0,0,0,1.684.393,4.44,4.44,0,0,0,2.648-.947v-1.7Zm6.878,3.573v-9.066h1.786l2.139,6.422c.2.594.344,1.036.447,1.34.1-.326.255-.808.482-1.456l2.179-6.306h1.608v9.066h-1.152v-7.592l-2.648,7.592h-1.076l-2.622-7.726v7.726Zm11.817,0v-9.066h3.408a4.05,4.05,0,0,1,1.661.277,2.223,2.223,0,0,1,1.349,2.028,2.014,2.014,0,0,1-.317,1.1,2.207,2.207,0,0,1-.933.835,2.384,2.384,0,0,1,1.268.822,2.233,2.233,0,0,1,.447,1.371,2.682,2.682,0,0,1-.268,1.188,2.233,2.233,0,0,1-.67.849,2.872,2.872,0,0,1-.987.447,6.041,6.041,0,0,1-1.469.152Zm1.206-5.257h1.965a4.753,4.753,0,0,0,1.139-.1,1.392,1.392,0,0,0,.7-.447,1.339,1.339,0,0,0,.228-.8,1.512,1.512,0,0,0-.214-.8,1.135,1.135,0,0,0-.621-.469,4.972,4.972,0,0,0-1.38-.125h-1.813Zm0,4.194h2.255a6.571,6.571,0,0,0,.822-.036,2.027,2.027,0,0,0,.7-.255,1.362,1.362,0,0,0,.446-.5,1.642,1.642,0,0,0,.179-.773,1.456,1.456,0,0,0-.268-.893,1.26,1.26,0,0,0-.719-.532,4.371,4.371,0,0,0-1.317-.152h-2.1Zm8.637,1.063v-9.066h1.206v3.734h4.685v-3.734h1.206v9.066H555.82V364.12h-4.676v4.265Z" transform="translate(-295.364 -294.112)" fill="#f9af3b"/></g></svg>