<svg xmlns="http://www.w3.org/2000/svg" width="383.127" height="47.381" viewBox="0 0 383.127 47.381"><g transform="translate(-263.538 -35.775)"><path d="M14.851-10.767H7.024v6.6h9.263V0H2V-24.883H16.252V-20.7H7.024v5.879h7.827ZM24.2-4.17h8.818V0H19.175V-24.883H24.2Zm24.575-6.6H40.947v6.6H50.21V0H35.923V-24.883H50.176V-20.7H40.947v5.879h7.827ZM69.966-8.289q-.188,4.255-2.393,6.443A8.451,8.451,0,0,1,61.353.342a7.838,7.838,0,0,1-6.469-2.777q-2.247-2.777-2.247-7.921v-4.187q0-5.127,2.324-7.9a7.965,7.965,0,0,1,6.46-2.777A8.02,8.02,0,0,1,67.6-22.952,10.336,10.336,0,0,1,70-16.423H64.958a6.7,6.7,0,0,0-.812-3.632,3.2,3.2,0,0,0-2.726-1,3.048,3.048,0,0,0-2.854,1.41A9.859,9.859,0,0,0,57.678-15v4.7q0,3.708.829,5.093a3.045,3.045,0,0,0,2.845,1.384,3.29,3.29,0,0,0,2.734-.966,6.36,6.36,0,0,0,.854-3.495ZM88.679-20.7H82.527V0H77.485V-20.7h-6.05v-4.187H88.679ZM99.1-9.092h-2.5V0H91.584V-24.883H99.6a8.141,8.141,0,0,1,5.836,1.957,7.308,7.308,0,0,1,2.059,5.563q0,4.956-3.606,6.938L108.247-.239V0h-5.4Zm-2.5-4.187h2.854a2.643,2.643,0,0,0,2.256-1,4.344,4.344,0,0,0,.752-2.675q0-3.743-2.922-3.743H96.609ZM128.464-10.2q0,5.007-2.367,7.776A8.182,8.182,0,0,1,119.526.342a8.275,8.275,0,0,1-6.58-2.743q-2.393-2.743-2.427-7.682v-4.255q0-5.127,2.375-8.007a8.082,8.082,0,0,1,6.6-2.88,8.12,8.12,0,0,1,6.545,2.828q2.393,2.828,2.427,7.938Zm-5.042-4.17a10.218,10.218,0,0,0-.957-5.007,3.2,3.2,0,0,0-2.974-1.641,3.215,3.215,0,0,0-2.957,1.581,9.709,9.709,0,0,0-.991,4.811V-10.2a9.253,9.253,0,0,0,.974,4.811,3.3,3.3,0,0,0,3.008,1.547,3.22,3.22,0,0,0,2.922-1.512,9.075,9.075,0,0,0,.974-4.691ZM149.468,0h-5.024l-7.349-16.321V0H132.07V-24.883h5.024L144.46-8.545V-24.883h5.007Zm9.28,0h-5.024V-24.883h5.024Zm21.089-8.289q-.188,4.255-2.393,6.443A8.451,8.451,0,0,1,171.223.342a7.838,7.838,0,0,1-6.469-2.777q-2.247-2.777-2.247-7.921v-4.187q0-5.127,2.324-7.9a7.965,7.965,0,0,1,6.46-2.777,8.02,8.02,0,0,1,6.178,2.273,10.336,10.336,0,0,1,2.4,6.528h-5.042a6.7,6.7,0,0,0-.812-3.632,3.2,3.2,0,0,0-2.726-1,3.048,3.048,0,0,0-2.854,1.41,9.859,9.859,0,0,0-.889,4.64v4.7q0,3.708.829,5.093a3.045,3.045,0,0,0,2.845,1.384,3.29,3.29,0,0,0,2.734-.966,6.36,6.36,0,0,0,.854-3.495ZM207.915-2.82a9.168,9.168,0,0,1-3.563,2.367,13.02,13.02,0,0,1-4.623.795,8.476,8.476,0,0,1-6.665-2.657q-2.375-2.657-2.444-7.733v-4.478q0-5.144,2.247-7.921a7.937,7.937,0,0,1,6.554-2.777q4.05,0,6.11,2t2.384,6.272h-4.888a5.675,5.675,0,0,0-.991-3.239,3.175,3.175,0,0,0-2.461-.863,3.219,3.219,0,0,0-2.957,1.487,9.475,9.475,0,0,0-.957,4.734v4.512a9.258,9.258,0,0,0,1.017,4.948,3.7,3.7,0,0,0,3.341,1.547,4.365,4.365,0,0,0,2.41-.6l.444-.308V-9.3h-3.521v-3.794h8.562Zm10.117-22.063,4.7,18,4.683-18h6.563V0h-5.042V-6.733l.461-10.374L224.424,0h-3.418l-4.973-17.107.461,10.374V0H211.47V-24.883ZM238.01,0V-24.883h7.69a8.872,8.872,0,0,1,5.922,1.735,6.325,6.325,0,0,1,2.025,5.084,6.129,6.129,0,0,1-.837,3.264,4.942,4.942,0,0,1-2.29,2,4.351,4.351,0,0,1,2.581,1.923,6.582,6.582,0,0,1,.906,3.563,7.1,7.1,0,0,1-1.991,5.469A8.187,8.187,0,0,1,246.248,0Zm5.024-10.818V-4.17h3.213a2.522,2.522,0,0,0,2.051-.837,3.6,3.6,0,0,0,.7-2.375q0-3.35-2.427-3.435Zm0-3.657h2.615q2.957,0,2.957-3.059a3.51,3.51,0,0,0-.684-2.427A2.915,2.915,0,0,0,245.7-20.7h-2.666ZM275.1,0h-5.007V-10.647h-7.417V0h-5.024V-24.883h5.024v10.066h7.417V-24.883H275.1Z" transform="translate(371 61)" fill="#222"/><path d="M8.359-3.617a4.215,4.215,0,0,1-1.027,2.8A3.483,3.483,0,0,1,4.7.156a3.26,3.26,0,0,1-2.719-1.3A5.617,5.617,0,0,1,.969-4.672V-6.734A5.449,5.449,0,0,1,2-10.242a3.428,3.428,0,0,1,2.824-1.289,3.286,3.286,0,0,1,2.551.984,4.313,4.313,0,0,1,.98,2.82H6.914a3.514,3.514,0,0,0-.586-1.984,1.837,1.837,0,0,0-1.5-.594,2.04,2.04,0,0,0-1.789.91,4.713,4.713,0,0,0-.625,2.668v2.086A4.982,4.982,0,0,0,3-1.992a1.887,1.887,0,0,0,1.7.922A2.055,2.055,0,0,0,6.3-1.625a3.491,3.491,0,0,0,.609-1.992Zm13.5-1.07A5.674,5.674,0,0,1,20.863-1.1,3.383,3.383,0,0,1,18.043.156a3.425,3.425,0,0,1-2.777-1.223,5.408,5.408,0,0,1-1.059-3.457V-6.664a5.68,5.68,0,0,1,1.008-3.574,3.364,3.364,0,0,1,2.813-1.293,3.4,3.4,0,0,1,2.8,1.238,5.58,5.58,0,0,1,1.027,3.535ZM20.426-6.68a4.875,4.875,0,0,0-.59-2.684,2.027,2.027,0,0,0-1.809-.879,2.02,2.02,0,0,0-1.785.891,4.719,4.719,0,0,0-.613,2.625v2.039a4.819,4.819,0,0,0,.605,2.656,2.026,2.026,0,0,0,1.809.914,2.01,2.01,0,0,0,1.781-.844,4.741,4.741,0,0,0,.6-2.586Zm9.644-4.7,2.969,9.281,2.969-9.281h1.844V0h-1.43V-4.43l.133-4.437L33.578,0H32.484L29.523-8.836l.133,4.406V0h-1.43V-11.375ZM45.9-4.453V0h-1.43V-11.375H48.1a3.282,3.282,0,0,1,2.492.949A3.508,3.508,0,0,1,51.5-7.9a3.475,3.475,0,0,1-.863,2.527,3.339,3.339,0,0,1-2.434.918Zm0-1.227h2.2a1.852,1.852,0,0,0,1.461-.571,2.384,2.384,0,0,0,.508-1.636,2.458,2.458,0,0,0-.523-1.643,1.783,1.783,0,0,0-1.437-.618H45.9Zm18.379-5.7v8.086a3.454,3.454,0,0,1-.937,2.531,3.492,3.492,0,0,1-2.57.914,3.482,3.482,0,0,1-2.578-.895,3.51,3.51,0,0,1-.906-2.551v-8.086H58.71V-3.35A2.569,2.569,0,0,0,59.2-1.636a1.975,1.975,0,0,0,1.574.566,1.986,1.986,0,0,0,1.582-.566,2.569,2.569,0,0,0,.488-1.714v-8.025Zm13.012,1.227H74.3V0H72.87V-10.148H69.886v-1.227h7.406ZM88.585-5.258H84.562v4.031h4.688V0H83.132V-11.375h6.039v1.227H84.562v3.664h4.023Zm10.09.656h-2V0H95.237V-11.375h3.188a3.4,3.4,0,0,1,2.531.871,3.485,3.485,0,0,1,.859,2.551,3.544,3.544,0,0,1-.465,1.84,2.937,2.937,0,0,1-1.316,1.184l2.2,4.836V0H100.7Zm-2-1.227h1.734a1.858,1.858,0,0,0,1.434-.579,2.193,2.193,0,0,0,.535-1.55q0-2.191-1.984-2.191H96.675Zm24.008,2.953a1.748,1.748,0,0,0-.461-1.3,4.722,4.722,0,0,0-1.664-.883,7.224,7.224,0,0,1-1.84-.9,3.194,3.194,0,0,1-.953-1.078,2.95,2.95,0,0,1-.316-1.387,2.968,2.968,0,0,1,.9-2.227,3.251,3.251,0,0,1,2.363-.875,3.526,3.526,0,0,1,1.781.446,3.046,3.046,0,0,1,1.2,1.242,3.676,3.676,0,0,1,.422,1.749h-1.437a2.4,2.4,0,0,0-.508-1.633,1.841,1.841,0,0,0-1.461-.578,1.8,1.8,0,0,0-1.344.485,1.861,1.861,0,0,0-.477,1.362,1.588,1.588,0,0,0,.516,1.205A4.571,4.571,0,0,0,119-6.384a5.485,5.485,0,0,1,2.4,1.368,3.078,3.078,0,0,1,.723,2.125,2.874,2.874,0,0,1-.9,2.215,3.458,3.458,0,0,1-2.445.832,3.934,3.934,0,0,1-1.832-.434,3.278,3.278,0,0,1-1.32-1.219,3.38,3.38,0,0,1-.48-1.8h1.438a2.209,2.209,0,0,0,.59,1.641,2.178,2.178,0,0,0,1.605.586,1.911,1.911,0,0,0,1.422-.484A1.8,1.8,0,0,0,120.682-2.875Zm10.441-2.789,2.328-5.711h1.617l-3.234,7.133V0H130.4V-4.242l-3.234-7.133H128.8Zm14.433,2.789a1.748,1.748,0,0,0-.461-1.3,4.722,4.722,0,0,0-1.664-.883,7.224,7.224,0,0,1-1.84-.9,3.193,3.193,0,0,1-.953-1.078,2.95,2.95,0,0,1-.316-1.387,2.968,2.968,0,0,1,.9-2.227,3.251,3.251,0,0,1,2.363-.875,3.526,3.526,0,0,1,1.781.446,3.046,3.046,0,0,1,1.2,1.242,3.676,3.676,0,0,1,.422,1.749h-1.437a2.4,2.4,0,0,0-.508-1.633,1.841,1.841,0,0,0-1.461-.578,1.8,1.8,0,0,0-1.344.485,1.861,1.861,0,0,0-.477,1.362,1.588,1.588,0,0,0,.516,1.205,4.571,4.571,0,0,0,1.594.869,5.485,5.485,0,0,1,2.4,1.368A3.078,3.078,0,0,1,147-2.891a2.874,2.874,0,0,1-.9,2.215,3.458,3.458,0,0,1-2.445.832,3.934,3.934,0,0,1-1.832-.434,3.278,3.278,0,0,1-1.32-1.219,3.38,3.38,0,0,1-.48-1.8h1.438a2.209,2.209,0,0,0,.59,1.641,2.178,2.178,0,0,0,1.605.586,1.911,1.911,0,0,0,1.422-.484A1.8,1.8,0,0,0,145.557-2.875Zm14.129-7.273h-2.992V0h-1.43V-10.148h-2.984v-1.227h7.406Zm11.293,4.891h-4.023v4.031h4.688V0h-6.117V-11.375h6.039v1.227h-4.609v3.664h4.023Zm8.5-6.117,2.969,9.281,2.969-9.281h1.844V0h-1.43V-4.43l.133-4.437L182.982,0h-1.094l-2.961-8.836.133,4.406V0h-1.43V-11.375ZM209.146,0h-1.437V-5.258H203.13V0H201.7V-11.375h1.43v4.891h4.578v-4.891h1.438Zm12.082-2.977h-3.844L216.5,0h-1.469L218.7-11.375h1.227L223.6,0h-1.469ZM217.759-4.2h3.1l-1.555-5.172ZM236.732,0h-1.437l-4.555-8.766V0H229.3V-11.375h1.438l4.57,8.8v-8.8h1.422Zm6.637,0V-11.375h2.711a3.913,3.913,0,0,1,3.094,1.246,5.115,5.115,0,0,1,1.1,3.5v1.906a5.008,5.008,0,0,1-1.117,3.488A4.157,4.157,0,0,1,245.915,0Zm1.43-10.148v8.922h1.148a2.661,2.661,0,0,0,2.2-.864,4.082,4.082,0,0,0,.711-2.561V-6.669a4.123,4.123,0,0,0-.691-2.639,2.549,2.549,0,0,0-2.09-.841Zm17.316,4.891h-4.023v4.031h4.688V0h-6.117V-11.375H262.7v1.227h-4.609v3.664h4.023Zm8.09,4.031h4.461V0h-5.9V-11.375H270.2Z" transform="translate(372 83)" fill="#999"/><path d="M19.5-10.51q0,6.169-3.333,8.972L19.6,1.538,16.44,4.443,11.86.256,10.544.342A8.128,8.128,0,0,1,3.939-2.521q-2.384-2.863-2.4-7.921v-3.9q0-5.127,2.375-8.007a8.082,8.082,0,0,1,6.6-2.88,8.16,8.16,0,0,1,6.511,2.769q2.393,2.769,2.478,7.776Zm-5.042-3.862a10.051,10.051,0,0,0-.974-5.024,3.234,3.234,0,0,0-2.974-1.624A3.215,3.215,0,0,0,7.554-19.44a9.709,9.709,0,0,0-.991,4.811v4.119a10.021,10.021,0,0,0,.983,5.042,3.268,3.268,0,0,0,3,1.624A3.188,3.188,0,0,0,13.475-5.46a9.956,9.956,0,0,0,.983-4.93Zm24.849-10.51V-7.656A8.048,8.048,0,0,1,37.17-1.718,8.266,8.266,0,0,1,31.138.342a8.334,8.334,0,0,1-6.11-2.085,8.11,8.11,0,0,1-2.111-6.033V-24.883h5.059V-7.759a5.128,5.128,0,0,0,.684,3.025,2.93,2.93,0,0,0,2.478.906,2.893,2.893,0,0,0,2.461-.9,5.11,5.11,0,0,0,.684-2.948V-24.883ZM54.619-5.093H47.766L46.433,0H41.118l7.776-24.883h4.6L61.318,0H55.952ZM48.86-9.28h4.648l-2.324-8.87ZM81.04,0H76.016L68.667-16.321V0H63.643V-24.883h5.024L76.033-8.545V-24.883H81.04Zm20.149-20.7H95.037V0H90V-20.7h-6.05v-4.187h17.244Z" transform="translate(262 61)" fill="#0055a8"/></g></svg>