<svg xmlns="http://www.w3.org/2000/svg" xmlns:xlink="http://www.w3.org/1999/xlink" width="300" height="51.054"><defs><linearGradient id="a" x1=".5" x2=".5" y2="1.018" gradientUnits="objectBoundingBox"><stop offset="0" stop-color="#214b96"/><stop offset="1" stop-color="#102a6a"/></linearGradient><linearGradient id="b" x1=".654" y1="-.013" x2=".654" y2="1.16" xlink:href="#a"/></defs><g fill-rule="evenodd"><path d="M78.461 97.2c16.572 0 30.008 10.862 30.008 24.261s-13.436 24.258-30.008 24.258-30-10.861-30-24.258 13.428-24.261 30-24.261Z" transform="translate(-40.734 -97.2)" fill="url(#a)"/><path d="M37.445 1.822c14.35 0 25.985 9.37 25.985 20.93S51.799 43.684 37.445 43.684s-25.987-9.373-25.987-20.933S23.09 1.821 37.445 1.821Z" fill="#f90"/><path d="M35.015 140.251c4.554-9.751 10.617-6.316 15.495-7.149 5.929-1.014 13.675-7.881 11.357-15.13-.757-2.371-4.193 1.027-4.8 1.544-1.253 1.06.217-2.792.189-3.345-.017-.355-2.9.238-3.343-.376-1.56-2.168 3.976-.191 1.794-2.137-1.779-1.586.618-1.829 1.1-.972.272.491.942 1.814 1.238 1.01.212-.577.019-1.292.159-1.651.927-2.407.708 2.731.965 2.325 2.579-4.083-.24 2.083 3.605 1.489 4.989-.773 2.238 6.164 4.712 3.687 2.581-2.586 4.043-4.724 7.41-6.413 2.927-1.462 2.362-2.025-.674-2.7-2.244-.56 1.575-4.611-1.571-4.049-1.91.337-2.785-.873-.223-1.238 1.04-.148-1.5-.538-1.912-1.462-1.032-2.287 1.983.07 2.766.07a8.466 8.466 0 0 1-.29-2.208c.635-2.26 1.984 3.313 2.358 2.025.635-2.219 1.7-1.16 1.122-.338-1.661 2.37 1.44.182 1.2 1.6-.272 1.568-3.912 1.59-.97 3.017.768.373 2.161.122 3.034.335l.891.224c1.721.425 1.517-4.239 4.137-7.411a10.533 10.533 0 0 1 5.131-2.798c4.343-.687 2.33 5.492 2.158 7.878-.288 4.035-6.5 4.6-6.032 7.841.175 1.223 0 6.188 1.685 6.188.449 0 .9-.787 1.127-1.013 1.348-1.35.449 1.126.449 1.688 0 .785 2.581-2.553 1.5 1.362-.3 1.089 2.521.883 1.375 1.975-.768.73-2.762-.792-2.092.039.631.789.81 3.154-.384 1.919a10.313 10.313 0 0 1-1.416-1.919c-.161-.293-1.57 2.024-1.907 1.911-1.687-.787 2.92-4.048-.34-4.612-2.808-.562-3.143-1.463-2.583-3.825 0-.338-5.392 6.526-9.1 7.2-2.923.562-.337 1.013 1.12 1.013 1.013 0 .564 3.713.45 4.277-.45 2.025 2.136-1.463 2.136 0 0 2.25-1.125.337 1.235 1.462 1.234.563-1.459 1.125-1.124 1.351l1.461.9c1.124.675-2.92.336-2.472 1.8.788 2.363-1.914.788-1.914-1.685 0-1.915-4.156 1.123-4.156-.229 0-1.574 2.6-1.578 2.134-3.487-.435-1.8-6.964-3.713-8.2-1.8-3.858 5.973-11.669 8.034-17.752 6.749-6.722-1.419-11.765 4.8-12.246 5.063Z" transform="translate(-35.015 -97.604)" fill="url(#b)"/><path d="M134.56 43.61c-.35 2.864-3.507 3.638-6.386 3.638-2.9 0-6.33-1.2-6.33-4.71 0-3.532 3.194-4.778 6.586-4.778 2.665 0 5.662.736 6.012 3.459h-3.854c-.217-1.088-.955-1.528-2.158-1.528a2.528 2.528 0 0 0-2.609 2.792c0 1.546.774 2.832 2.609 2.832 1.225 0 2.118-.565 2.158-1.706ZM142.637 37.593c5.512 0 7.09 2.651 7.09 4.742s-1.578 4.746-7.09 4.746-7.086-2.654-7.086-4.746 1.579-4.742 7.086-4.742Zm0 7.555a2.826 2.826 0 1 0-3.109-2.813 2.8 2.8 0 0 0 3.109 2.813ZM150.239 39.905c0-.564-.022-1.216-.078-1.812h3.619a21.5 21.5 0 0 1 .077 1.581h.039a4.64 4.64 0 0 1 4.03-1.913 3.683 3.683 0 0 1 3.506 1.983 4.744 4.744 0 0 1 4.126-1.983c2.083 0 4.616.685 4.616 4.145v5.006h-3.738v-4.62c0-1.316-.57-2.282-2.083-2.282a2.2 2.2 0 0 0-2.276 2.212v4.69h-3.741V42.4c0-1.32-.332-2.389-2.025-2.389a2.44 2.44 0 0 0-2.335 2.688v4.214h-3.74v-7.008ZM171.662 39.551a12.46 12.46 0 0 0-.075-1.458h3.626a12.4 12.4 0 0 1 .077 1.458 5.292 5.292 0 0 1 4.377-1.79c3.094 0 5.431 1.773 5.431 4.8 0 2.915-2.257 4.692-5.53 4.692a5.8 5.8 0 0 1-4.167-1.494v4.53h-3.736V39.551Zm6.639.245a2.661 2.661 0 0 0-2.9 2.636 2.69 2.69 0 0 0 2.9 2.776 2.708 2.708 0 1 0 0-5.412ZM198.555 45.103c0 .564.02 1.213.078 1.809h-3.625c-.034-.525-.075-1.054-.075-1.579h-.039a5.3 5.3 0 0 1-4.147 1.915c-3.562 0-4.9-1.828-4.9-4.132v-5.027h3.735v4.513a2.137 2.137 0 0 0 2.377 2.392 2.8 2.8 0 0 0 2.862-3.022v-3.883h3.734v7.01ZM199.491 38.093h2.391V36.3l3.744-1.229v3.022h3.15v2.144h-3.15v2.758c0 1.229.17 1.879 1.669 1.879a13.633 13.633 0 0 0 1.481-.1v2.141a16.2 16.2 0 0 1-2.511.213c-2.862 0-4.384-1-4.384-3.145v-3.746h-2.391v-2.144ZM213.02 43.329c.08 1.371.974 2.092 2.553 2.092 1.634 0 1.928-.6 2.12-1.2h3.972c-.779 2.794-3.448 3.024-6.154 3.024-3.386 0-6.345-1.127-6.345-4.605 0-3.408 2.939-4.882 6.289-4.882 4.768 0 6.407 2.125 6.424 5.568Zm4.884-1.828c-.034-1.44-1.086-1.915-2.41-1.915a2.162 2.162 0 0 0-2.412 1.915ZM222.649 39.905c0-.564-.019-1.216-.08-1.812h3.618c.06.633.079 1.265.079 1.9h.043c.912-1.686 1.927-2.02 4.379-2.02v2.88a7.494 7.494 0 0 0-.993-.07c-2.006 0-3.312 1.019-3.312 2.8v3.336h-3.735v-7.007ZM252.208 39.905c0-.564-.021-1.216-.079-1.812h3.622c.038.528.077 1.055.077 1.581h.036a4.647 4.647 0 0 1 4.034-1.913 3.679 3.679 0 0 1 3.5 1.983 4.744 4.744 0 0 1 4.128-1.983c2.082 0 4.618.685 4.618 4.145v5.006h-3.742v-4.62c0-1.316-.564-2.282-2.082-2.282a2.205 2.205 0 0 0-2.28 2.212v4.69h-3.734V42.4c0-1.32-.334-2.389-2.028-2.389a2.442 2.442 0 0 0-2.337 2.688v4.214h-3.736v-7.008ZM273.633 34.901h3.736v4.352a5.781 5.781 0 0 1 4.165-1.492c3.27 0 5.532 1.773 5.532 4.69 0 3.021-2.339 4.8-5.436 4.8a5.3 5.3 0 0 1-4.379-1.795 12.61 12.61 0 0 1-.078 1.458h-3.624a10.675 10.675 0 0 0 .084-1.458V34.901Zm6.637 4.9a2.686 2.686 0 0 0-2.9 2.777 2.866 2.866 0 1 0 2.9-2.777ZM287.785 38.077h3.647v3.314h4.978v-3.314H300v8.825h-3.59v-3.451h-4.978v3.451h-3.647v-8.828ZM247.123 38.06a9.622 9.622 0 0 0-.079 1.4h-.039a5.541 5.541 0 0 0-4.386-1.735c-3.182 0-5.377 1.717-5.377 4.5 0 2.523 2.173 4.5 5.3 4.5 1.646 0 3.472-.526 4.345-1.788h.04v.684c0 2.347-1.03 2.992-3.106 2.992h-3.205v2.426l3.031.006c4.112 0 7.006-1.4 7.006-5.531V39.46c0-.51.041-1.053.077-1.4Zm-3.109 6.533c-1.764 0-2.813-1.018-2.813-2.366 0-1.365.97-2.364 2.774-2.364 1.652 0 2.954.877 2.954 2.364 0 1.382-1.051 2.366-2.915 2.366ZM134.226 20.368c.264 4.609 3.272 7.032 8.575 7.032 5.5 0 6.486-2.01 7.141-4.018h13.355c-2.619 9.4-11.589 10.163-20.69 10.163-11.391 0-21.348-3.782-21.348-15.482 0-11.463 9.89-16.427 21.151-16.427 16.041 0 21.541 7.149 21.608 18.732Zm16.434-6.146c-.131-4.847-3.665-6.442-8.12-6.442-5.829 0-7.531 3.369-8.117 6.442ZM165.658 2.515h12.572v12.89l15.718-12.646h15.779l-16.173 12.7 18.266 16.96h-17.35l-16.241-16.131v16.134h-12.571V2.515ZM212.896 2.515h12.572v12.89l15.714-12.646h15.784l-16.175 12.7 18.269 16.96h-17.355l-16.237-16.131v16.134h-12.572V2.515Z" fill="#214b96"/><path d="M276.155 1.636c18.526 0 23.832 8.924 23.832 15.953s-5.306 15.956-23.832 15.956-23.831-8.922-23.831-15.956 5.3-15.953 23.835-15.953Zm0 25.408c5.889 0 10.477-3.368 10.477-9.456s-4.588-9.453-10.477-9.453-10.48 3.368-10.48 9.453 4.584 9.456 10.48 9.456Z" fill="#f90"/><path d="M107.755 2.759a33.5 33.5 0 0 0-.257 4.726h-.132c-3.272-3.781-8.25-5.849-14.795-5.849-10.742 0-18.142 5.791-18.142 15.186 0 8.509 7.334 15.186 17.879 15.186 5.564 0 11.72-1.774 14.664-6.028h.135v2.309c0 7.917-3.474 10.637-10.48 10.637h-10.4v8.179l9.805.016c13.885 0 23.638-5.248 23.638-19.192V7.489a46.362 46.362 0 0 1 .266-4.726ZM97.28 24.799c-5.957 0-9.5-3.427-9.5-7.977 0-4.61 3.275-7.977 9.369-7.977 5.561 0 9.952 2.954 9.952 7.977 0 4.668-3.538 7.977-9.825 7.977Z" fill="#214b96"/></g></svg>