<svg xmlns="http://www.w3.org/2000/svg" viewBox="0 0 156.99 55.91"><title>Element 1</title><path d="M31.53,26.51,24.11,41.73,17,40.84l3.14-6.28,9.89-19.65,3.31-6h7.58l-3.55,6.28-3.79,7L59.11,9.46h7.4L37.57,25.21,50.89,40.84H43.43Z" fill="#333"/><path d="M51,27.23l-1,1.88c0,.53.48.8,1.38.8H62.61l-1.26,2.57H49.52q-4.12,0-4.13-1.92a2.89,2.89,0,0,1,.18-.83l4-8.07q.91-2.39,4.56-2.31H65.47c1.38,0,1.66.84.87,2.53l-1.52,3.54a3.1,3.1,0,0,1-2.93,1.81H51Zm10.16-5.35H55.34a2.46,2.46,0,0,0-2.06.87l-1.12,1.81h9l.72-1.34v0C62.57,22.22,62.35,21.78,61.16,21.88Z" fill="#333"/><path d="M69.88,27.16q-2.05,0-.72-2.75l1.37-2.75q.91-2.39,4.56-2.31H88.37l-1.12,2.53h-11a2.46,2.46,0,0,0-2.06.87l-1,1.81H83.3c1.64,0,2.07.88,1.27,2.64l-1.16,2.64q-1.18,2.64-6,2.64l-12.37,0,1.56-2.53L78,30a1.91,1.91,0,0,0,1.34-.84,7.35,7.35,0,0,0,1-1.95Z" fill="#333"/><path d="M90.79,27.16q-2.06,0-.72-2.75l1.37-2.75q.91-2.39,4.56-2.31h13.28l-1.12,2.53h-11a2.46,2.46,0,0,0-2.06.87l-1,1.81h10.09c1.64,0,2.07.88,1.27,2.64l-1.16,2.64q-1.18,2.64-6,2.64L86,32.44l1.56-2.53,11.39,0a1.91,1.91,0,0,0,1.34-.84,7.35,7.35,0,0,0,1-1.95Z" fill="#333"/><path d="M120.2,14.14l-9.15,18.3h-4.16l9.26-18.3Z" fill="#333"/><path d="M121.76,27.23l-1,1.88c0,.53.48.8,1.38.8h11.21l-1.27,2.57H120.27c-2.74,0-4.12-.64-4.12-1.92a2.89,2.89,0,0,1,.18-.83l4-8.07q.91-2.39,4.56-2.31h11.29c1.37,0,1.66.84.87,2.53l-1.52,3.54a3.1,3.1,0,0,1-2.93,1.81H121.76Zm10.16-5.35H126.1a2.45,2.45,0,0,0-2.06.87l-1.12,1.81h9l.72-1.34v0C133.33,22.22,133.11,21.78,131.92,21.88Z" fill="#333"/><path d="M150.56,21.88H147a2.46,2.46,0,0,0-2.06.87l-3.26,6.36L140,32.44h-4.2l1.41-2.71L141.15,22q1.08-2.67,4.7-2.57H157l-1.3,2.5Z" fill="#333"/><path d="M53.46,38.71l-.35.69c0,.19.18.29.5.29h4l-.46.93H52.93c-1,0-1.48-.23-1.48-.7a1.11,1.11,0,0,1,.06-.3L53,36.68c.22-.57.76-.85,1.64-.83h4c.5,0,.6.3.31.92l-.54,1.28a1.1,1.1,0,0,1-1,.66H53.46Zm3.66-1.94H55a.88.88,0,0,0-.74.31l-.4.66H57.1l.26-.49h0C57.62,36.89,57.54,36.73,57.12,36.77Z" fill="#3373b8"/><path d="M65.25,34,62,40.61H60.47L63.8,34Z" fill="#3373b8"/><path d="M67.76,38.71l-.35.69c0,.19.17.29.49.29h4l-.46.93H67.23c-1,0-1.49-.23-1.49-.7a1.22,1.22,0,0,1,.07-.3l1.45-2.94c.22-.57.77-.85,1.64-.83H73c.49,0,.59.3.31.92l-.55,1.28a1.08,1.08,0,0,1-1,.66H67.76Zm3.65-1.94H69.32a.87.87,0,0,0-.74.31l-.41.66H71.4l.26-.49h0C71.92,36.89,71.83,36.73,71.41,36.77Z" fill="#3373b8"/><path d="M78.78,36.77a.87.87,0,0,0-.74.31L76.87,39.4c0,.19.17.29.49.29h4l-.45.93H76.69c-1,0-1.49-.23-1.49-.7a1.22,1.22,0,0,1,.07-.3l1.46-2.94c.21-.57.76-.85,1.63-.83h4.78l-.41.92h-4Z" fill="#3373b8"/><path d="M87.69,36.77l-.19.31L86.33,39.4c0,.22.18.33.49.31h1.54l-.63.9H86.12c-1,0-1.43-.33-1.39-1l1.46-2.94L87.55,34H89l-.91,1.91h3.44l-.43.91H87.69Z" fill="#3373b8"/><path d="M97.92,36.77H96.65a.87.87,0,0,0-.74.31L94.74,39.4l-.6,1.21H92.63l.51-1,1.4-2.83a1.55,1.55,0,0,1,1.69-.93h4l-.46.91Z" fill="#3373b8"/><path d="M109.25,36.77l-1.37,2.89c-.29.64-1,1-2.15,1h-2.52c-1,0-1.48-.23-1.48-.7a1.11,1.11,0,0,1,.06-.3l1.46-2.94c.21-.57.76-.85,1.63-.83h2.57C108.62,35.85,109.23,36.15,109.25,36.77Zm-2.68,0H105.3a.87.87,0,0,0-.74.31l-1.17,2.32c0,.19.17.29.49.29h2.06a.69.69,0,0,0,.48-.3l1.18-2.32c0-.21-.16-.31-.4-.31Z" fill="#3373b8"/><path d="M114.16,36.77l-.14.31-1.17,2.32-.6,1.21h-1.5l.5-1,1.46-2.94.41-.83h3.79c1.17,0,1.78.3,1.8.92l-1.38,2.89-.44,1h-1.56l1.73-3.53c0-.21-.16-.31-.4-.31h-2.5Z" fill="#3373b8"/><path d="M120.22,40.61l2.36-4.76h1.52l-2.39,4.76Z" fill="#3373b8"/><path d="M129,36.77a.86.86,0,0,0-.73.31l-1.17,2.32c0,.19.17.29.49.29h4l-.46.93h-4.25c-1,0-1.48-.23-1.48-.7a.88.88,0,0,1,.07-.3L127,36.68c.22-.57.77-.85,1.64-.83h4.78l-.41.92h-4Z" fill="#3373b8"/><path d="M88.9,54.86C44.79,54.86,9,40.84,9,23.53,9,14.15,19.56,5.74,36.22,0,17.72,5.74,5.83,14.61,5.83,24.58c0,17.3,35.76,31.33,79.88,31.33,20.19,0,38.62-2.95,52.69-7.8C124.79,52.34,107.61,54.86,88.9,54.86Z" fill="#333"/><path d="M80,53.12C35.86,52.12.87,37.28,1.8,20c.3-5.67,4.45-10.9,11.43-15.34C5.25,9.3.47,14.89.14,21-.78,38.29,34.21,53.13,78.29,54.13c29.62.68,55.78-6.51,70.06-15.59C133.75,47,108.45,53.77,80,53.12Z" fill="#3373b8"/><path d="M80,53.12C35.86,52.12.87,37.28,1.8,20c.3-5.67,4.45-10.9,11.43-15.34C5.25,9.3.47,14.89.14,21-.78,38.29,34.21,53.13,78.29,54.13c29.62.68,55.78-6.51,70.06-15.59C133.75,47,108.45,53.77,80,53.12Z" fill="none" stroke="#3373b8" stroke-miterlimit="10" stroke-width="0.25"/></svg>