<svg xmlns="http://www.w3.org/2000/svg" viewBox="0 0 657.2 216.55"><defs><style>.cls-1{fill:#fff;}.cls-2{fill:#f15a29;}</style></defs><title>Element 1</title><g id="Ebene_2" data-name="Ebene 2"><g id="Your_design" data-name="Your design"><path class="cls-1" d="M22.61,175.62c.56.09.75.3.75.69V179a.64.64,0,0,1-.7.73H11.8c-3.53,0-5.27,1-5.27,3.31v.69c0,1.8.66,2.87,3.15,3.82L19.23,191c4.41,1.63,5.92,3.86,5.92,8v1.33c0,6.44-5.55,7.81-12.93,7.81A85.34,85.34,0,0,1,.66,207.4a.68.68,0,0,1-.66-.77v-2.58c0-.47.23-.68.75-.68H13.87c3.48,0,5.21-1,5.21-3.23v-.73c0-2-.79-3.13-3.47-4.12L5.45,191.64c-3.8-1.29-5-3.86-5-8v-1c0-6.45,5.22-7.78,12.69-7.78A57.33,57.33,0,0,1,22.61,175.62Z"/><path class="cls-1" d="M59.88,195.89c0,9.75-2.11,12.28-10.81,12.28a55.21,55.21,0,0,1-6-.25v7.94c0,.47-.24.69-.71.69H38.07c-.47,0-.71-.22-.71-.69V185.63c0-.52.33-.77.9-.86a60.88,60.88,0,0,1,10-.77C57.77,184,59.88,186.49,59.88,195.89ZM43.1,188.51v14.86c1.6.17,3.57.25,5.08.25,5.31,0,6-1.41,6-7.56,0-5.88-.51-7.55-5.73-7.55Z"/><path class="cls-1" d="M94.71,196.11c0,9.66-2.07,12.06-11.47,12.06s-11.43-2.4-11.43-12.06S73.83,184,83.24,184,94.71,186.4,94.71,196.11Zm-17.21,0c0,6,.71,7.56,5.74,7.56S89,202.16,89,196.11s-.7-7.6-5.73-7.6S77.5,190,77.5,196.11Z"/><path class="cls-1" d="M121.07,184.47c.47.13.75.3.75.77v2.62c0,.47-.28.69-.8.65h-4.27c-2.82,0-3.67.43-3.67,2.32v16.49c0,.43-.23.64-.7.64H108.1c-.47,0-.71-.21-.71-.64V189.49c0-5.11,4.47-5.49,8-5.49A33,33,0,0,1,121.07,184.47Z"/><path class="cls-1" d="M139.45,177.64a.57.57,0,0,1,.8.6v6h4.65c.47,0,.75.22.75.65v2.7c0,.48-.28.69-.75.69h-4.65v13.1c0,1.89.61,2.28,2.91,2.28h2.07c.56,0,.8.17.8.6v2.83c0,.47-.24.69-.71.78a23.39,23.39,0,0,1-3.34.29c-3.66,0-7.47-.08-7.47-5.23V188.29h-2.68c-.47,0-.75-.21-.75-.69v-2.7c0-.43.28-.65.75-.65h2.68v-4.93c0-.43.24-.61.66-.69Z"/><path class="cls-1" d="M174.27,184.47c.47.09.71.3.71.69v2.53c0,.43-.24.64-.75.64h-8.65c-2,0-3.1.56-3.1,1.89v.52c0,1,.61,1.85,2.58,2.53l6.16,2.06c4.14,1.42,4.79,3.61,4.79,6.28v.55c0,4.9-3.57,6-9.73,6-4.09,0-7.61-.25-9.16-.38-.57,0-.71-.26-.71-.65v-2.66c0-.47.19-.68.75-.68h9.12c3.15,0,4.14-.35,4.14-1.85v-.43c0-1-.56-1.72-2.68-2.45l-6.2-2.15a6.18,6.18,0,0,1-4.71-6.31v-.86c0-4.68,4.24-5.75,10.11-5.75A52,52,0,0,1,174.27,184.47Z"/><path class="cls-1" d="M208.82,179.92,217,207.27c.1.52,0,.69-.56.69h-4.8c-.42,0-.51-.17-.66-.69L208.16,198h-13.4l-2.82,9.23c-.14.52-.23.69-.61.69h-4.84c-.52,0-.66-.17-.56-.69l8.36-27.35c1.41-4.51,2.26-5,7.15-5C206.7,174.89,207.46,175.41,208.82,179.92Zm-9,1.41-3.62,12.07H206.8l-3.53-12.07c-.47-1.54-.51-1.76-1.83-1.76C200.36,179.57,200.26,179.79,199.79,181.33Z"/><path class="cls-1" d="M250.55,194.17v13.15c0,.43-.28.64-.75.64h-4.23c-.47,0-.7-.21-.7-.64v-12.2c0-6.36-1.09-6.61-5.5-6.61H234v18.81c0,.43-.23.64-.7.64h-4.33c-.47,0-.66-.21-.66-.64V185.37c0-.56.24-.6.66-.69a61.9,61.9,0,0,1,10.53-.68C248.16,184,250.55,185.2,250.55,194.17Z"/><path class="cls-1" d="M284.91,175.15c.52,0,.71.17.71.64V206.5c0,.6-.29.82-.85.9a61.54,61.54,0,0,1-10.06.77c-9.5,0-11.56-2.44-11.56-12.06S265.21,184,273.91,184a57.85,57.85,0,0,1,6,.25v-8.46c0-.47.23-.64.7-.64ZM274.8,188.51c-5.26,0-6,1.41-6,7.6,0,5.84.52,7.56,5.83,7.56a44.94,44.94,0,0,0,5.27-.35V188.51Z"/><path class="cls-1" d="M335.2,175.11c.47,0,.61.21.66.64l3.2,31.52c0,.48-.24.69-.71.69h-4.61c-.47,0-.65-.21-.7-.69l-2.12-22.54-9.3,21.6a1,1,0,0,1-.94.56h-3.91a.86.86,0,0,1-.89-.56l-9.31-21.6-2.16,22.54c-.05.48-.23.69-.7.69H299.1c-.47,0-.75-.21-.71-.69l3.2-31.52c.05-.39.19-.64.66-.64h4.65c1.32,0,1.74.38,2.26,1.67l9.59,22.72,9.54-22.76c.57-1.25.94-1.63,2.26-1.63Z"/><path class="cls-1" d="M373.93,196.11c0,9.66-2.07,12.06-11.47,12.06S351,205.77,351,196.11s2-12.11,11.43-12.11S373.93,186.4,373.93,196.11Zm-17.21,0c0,6,.71,7.56,5.74,7.56s5.73-1.51,5.73-7.56-.7-7.6-5.73-7.6S356.72,190,356.72,196.11Z"/><path class="cls-1" d="M400.29,184.47c.47.13.75.3.75.77v2.62c0,.47-.28.69-.8.65H396c-2.82,0-3.67.43-3.67,2.32v16.49c0,.43-.24.64-.71.64h-4.27c-.47,0-.71-.21-.71-.64V189.49c0-5.11,4.47-5.49,7.95-5.49A33,33,0,0,1,400.29,184.47Z"/><path class="cls-1" d="M433.66,195.64v1.28c0,.82-.28,1.16-1.6,1.16h-14.9c.14,4.56,1.27,5.59,5.83,5.59h8c.47,0,.7.21.7.64V207c0,.48-.23.65-.65.73a62.69,62.69,0,0,1-8.42.47c-9.17,0-11.23-2.4-11.23-12.06S413.49,184,422.66,184C431.5,184,433.57,186.32,433.66,195.64Zm-16.5-1.29h10.77c-.05-4.64-1.09-5.84-5.27-5.84C418.29,188.51,417.21,189.71,417.16,194.35Z"/><path class="cls-1" d="M467.55,175.62c.56.09.75.3.75.69V179a.64.64,0,0,1-.71.73H456.74c-3.53,0-5.27,1-5.27,3.31v.69c0,1.8.66,2.87,3.15,3.82l9.54,3.48c4.42,1.63,5.93,3.86,5.93,8v1.33c0,6.44-5.55,7.81-12.93,7.81a85.24,85.24,0,0,1-11.56-.77.67.67,0,0,1-.66-.77v-2.58c0-.47.23-.68.75-.68H458.8c3.48,0,5.22-1,5.22-3.23v-.73c0-2-.8-3.13-3.48-4.12l-10.15-3.65c-3.81-1.29-5-3.86-5-8v-1c0-6.45,5.21-7.78,12.69-7.78A57.42,57.42,0,0,1,467.55,175.62Z"/><path class="cls-1" d="M487.33,175.15c.47,0,.71.21.71.64v8.42a54.66,54.66,0,0,1,5.5-.21c8.69,0,11.09,1.2,11.09,10.17v13.15c0,.43-.24.64-.71.64h-4.27c-.47,0-.71-.21-.71-.64v-12.2c0-6.36-1.08-6.66-5.5-6.66H488v18.86c0,.43-.24.64-.71.64H483c-.47,0-.66-.21-.66-.64V175.79c0-.43.23-.64.7-.64Z"/><path class="cls-1" d="M540.11,196.11c0,9.66-2.06,12.06-11.47,12.06s-11.42-2.4-11.42-12.06,2-12.11,11.42-12.11S540.11,186.4,540.11,196.11Zm-17.2,0c0,6,.7,7.56,5.73,7.56s5.74-1.51,5.74-7.56-.71-7.6-5.74-7.6S522.91,190,522.91,196.11Z"/><path class="cls-1" d="M575.36,195.89c0,9.75-2.11,12.28-10.81,12.28a55.21,55.21,0,0,1-6-.25v7.94a.61.61,0,0,1-.7.69h-4.33a.61.61,0,0,1-.7-.69V185.63c0-.52.33-.77.89-.86a60.88,60.88,0,0,1,10-.77C573.25,184,575.36,186.49,575.36,195.89Zm-16.78-7.38v14.86c1.6.17,3.57.25,5.08.25,5.31,0,6-1.41,6-7.56,0-5.88-.51-7.55-5.73-7.55Z"/><path class="cls-2" d="M157.79,77c7.23-24.32-1.93-32.73-26.25-32.73H88.9c-2.7,0-5.68-2.62-4.75-7.81s6.07-6.31,8.78-6.31h52.58c19.61,0,36.38-11.13,42-30.17H95Q58.48,0,47.63,36.48C40.4,60.8,49.09,70,73.41,70h43.46c2.7,0,6,2.24,5.13,7.06s-5.55,6.53-8.26,6.53H59.8c-19.62,0-36.82,10.9-42.48,30h93.14Q146.94,113.5,157.79,77Z"/><path class="cls-2" d="M225.54,29.46l-79.95,84h47.72L254.21,49l-2.93,64.48h33.56L292,.1,201.22,0C204.05,14.45,212.25,24.9,225.54,29.46Z"/><path class="cls-2" d="M329.88,113.5l21.63-54.64,18.76,32.07,46.34-35.35L393.82,113.5H430.6L475.71,0H439.05L381.41,40.53,357.85,0h-57c2.41,12.36,13.19,26.9,25.6,30.16L293.47,113.5Z"/><polygon class="cls-2" points="473.15 41.96 469.51 60.46 483.55 60.46 493.89 41.96 500.45 25.15 479.71 25.15 473.15 41.96"/><path class="cls-2" d="M489.12,0,483.5,14.28H635.34l-35.26,87.44c-11.18,28.16-31.79,25.65-41.08,25.65H11.48L5.77,141.66H562.49c31.06,0,44.27-14.83,49.64-28.62L657.2,0Z"/><path class="cls-2" d="M532.15,48.84h43.19c15.22,0,28.23-8.63,32.62-23.41H535.65q-28.31,0-36.73,28.31c-5.61,18.87,1.14,26,20,26h34.8c2.1,0,4.69,1.73,4,5.47s-4.31,5.07-6.41,5.07H508.43c-15.22,0-28.57,8.46-33,23.24h72.2q28.3,0,36.73-28.31C590,66.32,582.9,59.8,564,59.8H529c-2.1,0-4.41-2-3.69-6.06S530.05,48.84,532.15,48.84Z"/></g></g></svg>