<?xml version="1.0" encoding="UTF-8"?>
<svg id="Ebene_2" data-name="Ebene 2" xmlns="http://www.w3.org/2000/svg" viewBox="0 0 285 80.9">
  <defs>
    <style>
      .cls-1 {
        fill: #fff;
      }
    </style>
  </defs>
  <g id="Ebene_1-2" data-name="Ebene 1">
    <g>
      <polygon class="cls-1" points="42.64 7.71 45.95 0 0 10.75 37.52 20.66 40.56 13.47 154.9 13.47 148.37 21.5 155.81 21.5 167 7.71 42.64 7.71"/>
      <polygon class="cls-1" points="240.13 80.9 285 70.21 248.05 60.39 245.29 67.32 118.95 67.32 125.55 59.36 118.25 59.36 107.1 73.14 243.19 73.14 240.13 80.9"/>
      <path class="cls-1" d="M19.63,27.37l.33,18.05,6.84-18.05h5.49l.36,17.9,6.77-17.9h5.53l-11.21,26.13h-5.06l-.25-19.28-7.35,19.28h-4.91l-1.78-26.13h5.24Z"/>
      <path class="cls-1" d="M48.69,27.37h17.36l-.8,4.51h-12.01l-1.02,5.78h11.02l-.8,4.51h-10.99l-1.2,6.8h12.59l-.8,4.51h-18.08l4.73-26.13Z"/>
      <path class="cls-1" d="M70.7,27.37h5.46l-4.73,26.13h-5.46l4.73-26.13Z"/>
      <path class="cls-1" d="M81.21,27.37h8.81c7.57,0,10.84,3.64,10.84,11.21,0,5.57-2.84,10.88-6.84,13.21-2.8,1.64-7.17,1.71-7.31,1.71h-10.11l4.62-26.13Zm1.67,21.32h4.66c5.82,0,7.86-6.11,7.86-10.55,0-4.11-1.75-6.22-5.42-6.22h-4.15l-2.95,16.77Z"/>
      <path class="cls-1" d="M107.3,27.37h17.36l-.8,4.51h-12.01l-1.02,5.78h11.02l-.8,4.51h-10.99l-1.2,6.8h12.59l-.8,4.51h-18.08l4.73-26.13Z"/>
      <path class="cls-1" d="M161.2,27.37h6.37l3.31,26.13h-5.39l-.47-5.13h-9.21l-2.51,5.13h-5.78l13.68-26.13Zm2.33,5.46h-.07l-5.42,11.02h6.55l-1.06-11.02Z"/>
      <path class="cls-1" d="M182.45,27.37l-2.66,15.14c-.18,1.13-.36,2.48-.36,3.06,0,3.42,2.84,4.04,4.48,4.04,4.77,0,5.46-3.75,6.22-8.04l2.62-14.19h5.42l-2.87,15.87c-1.35,7.35-4.11,10.91-11.93,10.91-4.29,0-9.35-2.55-9.35-8.08,0-.69,.11-2.07,.47-4.18l2.51-14.52h5.46Z"/>
      <path class="cls-1" d="M223.51,49.97h3.54l-.68,3.52h-3.54l.68-3.52Z"/>
      <path class="cls-1" d="M231.58,41h3.29l-2.25,12.49h-3.29l2.25-12.49Zm.94-4.77h3.29l-.54,2.91h-3.29l.54-2.91Z"/>
      <path class="cls-1" d="M237.96,41h3.05l-.52,2.25c1.06-1.6,2.49-2.58,4.44-2.58,1.78,0,3.59,1.01,3.59,3.38,0,.99-.07,1.46-.23,2.37l-1.31,7.07h-3.31l1.31-6.97c.12-.63,.19-1.13,.19-1.48,0-1.27-.94-1.6-1.53-1.6-2,0-3.1,1.48-3.47,3.69l-1.15,6.36h-3.31l2.25-12.49Z"/>
      <path class="cls-1" d="M250.94,41h1.78c.33-1.95,.59-3.1,1.46-3.85,.87-.75,1.85-.94,2.96-.94,.4,0,.66,.05,1.39,.17l-.4,2.61c-.28-.09-.49-.17-.8-.17-.84,0-1.03,.52-1.15,1.1-.09,.35-.14,.77-.21,1.08h1.83l-.4,2.3h-1.85l-1.83,10.16h-3.26l1.83-10.16h-1.76l.42-2.3Z"/>
      <path class="cls-1" d="M264.72,40.63c3.26,0,5.75,1.88,5.75,5.84,0,2.63-1.71,7.4-7.23,7.4-3.15,0-5.75-2.02-5.75-5.85,0-2.63,1.71-7.39,7.23-7.39Zm-1.24,10.61c1.95,0,3.62-1.85,3.62-4.81,0-2.09-1.1-3.17-2.61-3.17-1.95,0-3.62,1.85-3.62,4.81,0,2.09,1.1,3.17,2.61,3.17Z"/>
      <path class="cls-1" d="M215.23,44.07l.62,1.71,.8-5.17,2.26-13.25h5.28l-4.69,26.13h-5.64l-6.29-15.94-.95-2.58-.47,3.57-2.44,14.95h-5.42l4.8-26.13h5.67l6.48,16.7Z"/>
      <polygon class="cls-1" points="150.42 27.38 146.99 27.38 144.25 27.38 128.43 27.38 127.63 31.84 140.62 31.84 124.21 52.03 124.21 53.48 130.35 53.48 145.33 53.48 146.13 49 134.02 49 150.42 28.91 150.42 27.38"/>
    </g>
  </g>
</svg>