<?xml version="1.0" encoding="utf-8"?>
<!DOCTYPE svg PUBLIC "-//W3C//DTD SVG 1.1//EN" "http://www.w3.org/Graphics/SVG/1.1/DTD/svg11.dtd">
<svg version="1.1" id="Ebene_1" xmlns="http://www.w3.org/2000/svg" xmlns:xlink="http://www.w3.org/1999/xlink" x="0px" y="0px"
	 width="297.64px" height="70.438px" viewBox="0 71.724 297.64 70.438" enable-background="new 0 71.724 297.64 70.438"
	 xml:space="preserve">
<g>
	<polygon fill="#1D5CAB" points="21.706,121.024 26.85,121.024 26.85,108.723 37.076,108.723 37.076,103.924 26.85,103.924 
		26.85,96.381 37.076,96.381 37.076,91.584 21.706,91.584 	"/>
	<rect x="40.833" y="91.584" fill="#1D5CAB" width="4.991" height="29.441"/>
	<path fill="#1D5CAB" d="M67.723,100.912c-1.689-1.808-4.07-2.755-6.962-2.755c-3.197,0-6.139,1.2-8.279,3.383
		c-2.17,2.213-3.366,5.298-3.366,8.687c0,6.356,5.184,11.337,11.799,11.337c2.788,0,5.196-1.044,6.809-2.909v2.371h4.99V98.735
		h-4.99V100.912z M67.8,109.919c0,3.859-3.105,7.002-6.925,7.002c-3.82,0-6.769-3.207-6.769-7.002s3.036-7.116,6.769-7.116
		C64.821,102.803,67.8,105.861,67.8,109.919z"/>
	<path fill="#1D5CAB" d="M85.646,107.099l-0.109-0.035c-2.17-0.67-3.5-1.148-3.5-2.49c0-1.044,0.823-1.771,2.004-1.771
		c1.627,0,2.116,1.163,2.237,2.141l0.055,0.434h4.948l-0.015-0.511c-0.119-3.887-3.076-6.709-7.032-6.709
		c-3.532,0-7.186,2.529-7.186,6.761c0,2.361,0.767,5.018,6.457,6.816c2.882,0.93,3.271,1.917,3.271,2.758
		c0,1.474-1.012,2.426-2.58,2.426c-1.9,0-2.949-1.15-3.12-3.423l-0.035-0.459h-4.956v0.496c0,5.273,4.041,8.031,8.032,8.031
		c4.501,0,7.646-3.001,7.646-7.3c0-3.504-2.059-5.915-6.116-7.163L85.646,107.099z"/>
	<path fill="#1D5CAB" d="M111.364,113.287c-1.044,2.307-3.081,3.631-5.583,3.631c-3.664,0-6.424-3.043-6.424-7.079
		c0-4.035,2.674-7.039,6.501-7.039c2.542,0,4.358,1.216,5.551,3.716l0.134,0.282h5.385l-0.174-0.627
		c-1.297-4.72-5.826-8.014-11.013-8.014c-6.486,0-11.375,5.121-11.375,11.913c0,3.078,1.176,5.962,3.311,8.123
		c2.146,2.17,5.023,3.368,8.104,3.368c5.045,0,9.247-3.028,10.963-7.905l0.233-0.659h-5.479l-0.131,0.29H111.364z"/>
	<path fill="#1D5CAB" d="M131.039,98.157c-2.299,0-4.189,0.704-5.539,2.054v-8.63h-4.991v29.442h4.991v-12.03
		c0-3.879,1.912-6.193,5.117-6.193s4.81,1.897,4.81,6.154v12.069h4.99v-13.3c0-5.814-3.681-9.569-9.375-9.569L131.039,98.157z"/>
	<path fill="#1D5CAB" d="M154.607,98.157c-6.293,0-11.224,5.233-11.224,11.913c0,6.121,5.298,11.491,11.337,11.491
		c4.766,0,8.962-2.964,10.69-7.548l0.253-0.672h-5.01l-0.142,0.26c-1.108,2.047-3.269,3.316-5.638,3.316
		c-2.9,0-5.326-1.867-6.33-4.814h17.404l0.067-0.419c0.122-0.769,0.122-1.404,0.122-2.076c0-6.422-5.065-11.451-11.529-11.451
		H154.607z M148.443,108.036c0.561-3.249,3.606-5.236,6.28-5.236c3.14,0,5.831,2.26,6.354,5.236H148.443z"/>
	<path fill="#1D5CAB" d="M180.402,98.157c-2.373,0-4.323,0.717-5.809,2.135v-1.558h-4.723v22.291h4.99v-12.144
		c0-3.75,1.959-6.077,5.117-6.077c3.157,0,4.809,1.945,4.809,6.117v12.106h4.99v-13.26c0-5.837-3.68-9.606-9.375-9.606V98.157z"/>
	<rect x="193.9" y="91.584" fill="#1D5CAB" width="4.99" height="29.441"/>
	<path fill="#1D5CAB" d="M221.062,100.91c-1.689-1.809-4.07-2.753-6.963-2.753c-3.197,0-6.139,1.2-8.279,3.383
		c-2.17,2.213-3.365,5.298-3.365,8.687c0,6.356,5.184,11.337,11.799,11.337c2.788,0,5.196-1.044,6.809-2.909v2.371h4.99V98.735
		h-4.99v2.178V100.91z M221.386,109.916c0,3.859-3.105,7.002-6.922,7.002c-3.817,0-6.77-3.207-6.77-7.002s3.037-7.116,6.77-7.116
		C218.411,102.8,221.386,105.859,221.386,109.916z"/>
	<path fill="#1D5CAB" d="M240.183,98.157c-2.374,0-4.324,0.717-5.809,2.135v-1.558h-4.723v22.291h4.99v-12.144
		c0-3.75,1.959-6.077,5.117-6.077c3.156,0,4.809,1.945,4.809,6.117v12.106h4.99v-13.26c0-5.837-3.681-9.606-9.375-9.606V98.157z"/>
	<path fill="#1D5CAB" d="M270.944,91.584v9.086c-1.733-1.607-4.192-2.513-6.923-2.513c-6.527,0-11.454,5.139-11.454,11.952
		c0,3.15,1.196,6.055,3.363,8.183c2.151,2.108,5.065,3.271,8.205,3.271c2.84,0,5.365-1.007,7.116-2.8v2.262h4.683V91.584H270.944
		L270.944,91.584z M264.329,116.918c-3.669,0-6.769-3.207-6.769-7.002s3.035-7.116,6.769-7.116c4.077,0,6.923,2.989,6.923,7.271
		C271.251,113.781,268.082,116.918,264.329,116.918z"/>
</g>
<path fill="#1D5CAB" d="M280.908,76.722c5.459,0,9.898,4.442,9.898,9.899v39.355c0,5.459-4.441,9.898-9.898,9.898H16.732
	c-5.459,0-9.899-4.442-9.899-9.898V86.621c0-5.459,4.442-9.899,9.899-9.899h264.172 M280.905,71.724H16.732
	c-8.228,0-14.897,6.67-14.897,14.897v39.355c0,8.227,6.669,14.896,14.897,14.896h264.172c8.228,0,14.897-6.67,14.897-14.896V86.621
	C295.802,78.394,289.132,71.724,280.905,71.724L280.905,71.724z"/>
</svg>
