<?xml version="1.0" encoding="UTF-8"?>
<svg id="Ebene_1" xmlns="http://www.w3.org/2000/svg" version="1.1" viewBox="0 0 740.5 111.9">
  <!-- Generator: Adobe Illustrator 29.8.1, SVG Export Plug-In . SVG Version: 2.1.1 Build 2)  -->
  <defs>
    <style>
      .st0 {
        fill: #33302c;
      }

      .st1 {
        fill: #f29122;
      }
    </style>
  </defs>
  <path class="st0" d="M74.3,68.9c21,0,40.2,8.3,55.2,22.2,2.5,2.4,6.5-.6,5-3.7-12-24.9-26.9-48.2-44.6-69l-8.9-10.5c-3.5-4.2-9.9-4.2-13.4,0l-8.9,10.5C41.1,39.2,26.1,62.4,14.2,87.4c-1.5,3.1,2.4,6.1,5,3.7,15-13.8,34.2-22.2,55.2-22.2h0Z"/>
  <path class="st1" d="M79.9,68.9c21,0,40.2,8.3,55.2,22.2,2.5,2.4,6.5-.6,5-3.7-12-24.9-26.9-48.2-44.6-69l-8.9-10.5c-3.5-4.2-9.9-4.2-13.4,0l-8.9,10.5c-17.7,20.8-32.6,44.1-44.6,69-1.5,3.1,2.4,6.1,5,3.7,15-13.8,34.2-22.2,55.2-22.2h0Z"/>
  <path class="st0" d="M190.2,72.4c2.5,0,5-.4,7.4-1.2s4.2-1.5,5.3-2.2l1.7-1.2,7.1,14.3c-.2.2-.6.4-1,.7-.4.3-1.4.9-2.9,1.7-1.5.8-3.1,1.5-4.9,2.1s-4,1.1-6.8,1.6c-2.8.5-5.7.7-8.6.7-6.9,0-13.3-1.7-19.5-5-6.1-3.4-11.1-8-14.8-13.9-3.7-5.9-5.6-12.3-5.6-19.1s1.1-10.2,3.3-14.9c2.2-4.8,5.1-8.8,8.8-12.2,3.7-3.4,7.9-6.1,12.8-8.1,4.9-2,9.9-3,15-3s9.1.6,13.2,1.7c4,1.1,6.9,2.3,8.5,3.4l2.5,1.7-7.1,14.3c-.4-.3-1-.8-1.9-1.3-.8-.5-2.5-1.2-5-2-2.5-.8-5-1.3-7.6-1.3-4,0-7.7.7-10.9,2-3.2,1.3-5.8,3-7.6,5.2-1.9,2.1-3.3,4.4-4.3,6.9-1,2.5-1.5,5-1.5,7.6,0,5.6,2.1,10.6,6.3,15.1,4.2,4.4,10.2,6.6,18,6.6Z"/>
  <path class="st0" d="M218.1,82.2c-5.1-4.5-7.6-10.3-7.6-17.4s2.6-12.9,7.9-17.4c5.3-4.5,11.9-6.8,19.7-6.8s14.1,2.3,19.4,6.9c5.3,4.6,7.9,10.4,7.9,17.4s-2.6,12.8-7.7,17.4c-5.1,4.5-11.7,6.8-19.6,6.8s-14.9-2.3-20-6.8ZM230.3,57c-2,2-3.1,4.6-3.1,7.8s1,5.7,2.9,7.7c2,2,4.6,3,7.8,3s5.6-1,7.6-3c2-2,3-4.6,3-7.7s-1-5.7-3.1-7.8c-2-2-4.6-3-7.5-3s-5.6,1-7.6,3Z"/>
  <path class="st0" d="M272.7,82.2c-5.1-4.5-7.6-10.3-7.6-17.4s2.6-12.9,7.9-17.4c5.3-4.5,11.9-6.8,19.7-6.8s14.1,2.3,19.4,6.9c5.3,4.6,7.9,10.4,7.9,17.4s-2.6,12.8-7.7,17.4c-5.1,4.5-11.7,6.8-19.6,6.8s-14.9-2.3-20-6.8ZM284.9,57c-2,2-3.1,4.6-3.1,7.8s1,5.7,2.9,7.7c2,2,4.6,3,7.8,3s5.6-1,7.6-3c2-2,3-4.6,3-7.7s-1-5.7-3.1-7.8c-2-2-4.6-3-7.5-3s-5.6,1-7.6,3Z"/>
  <path class="st0" d="M322.7,87.6V10.8h15.8v76.8h-15.8Z"/>
  <path class="st0" d="M411.4,46.3v16c-1.9,8.8-6.1,15.4-12.5,19.9-6.4,4.5-13.6,6.7-21.5,6.7s-18.4-3.7-25.4-11.1c-7-7.4-10.5-16.4-10.5-27s3.4-19.8,10.3-27.1c6.9-7.4,15.4-11.1,25.6-11.1s21.4,4.2,28.4,12.6l-11,12.1c-3.9-6.3-9.4-9.5-16.4-9.5s-9.6,2.3-13.3,6.8c-3.7,4.5-5.5,9.9-5.5,16.3s1.8,11.6,5.5,16c3.7,4.4,8.1,6.6,13.3,6.6s8-1.3,11.2-3.9,4.8-6,4.8-10.3h-17v-12.9h34Z"/>
  <path class="st0" d="M417.4,81.9c-4.3-4.7-6.4-10.4-6.4-17.2s2.1-12.5,6.4-17.2c4.3-4.7,9.7-7.1,16.4-7.1s11.1,1.9,15,5.7v-4.4h15.8v45.8h-15.6v-5.2h-.2c-3.9,4.4-8.9,6.5-15,6.5s-12.1-2.3-16.4-7ZM430.9,57c-2,2-3.1,4.6-3.1,7.8s1,5.7,2.9,7.7c2,2,4.6,3,7.8,3s5.6-1,7.6-3c2-2,3-4.6,3-7.7s-1-5.7-3.1-7.8c-2-2-4.6-3-7.5-3s-5.6,1-7.6,3Z"/>
  <path class="st0" d="M474,81.9c-4.3-4.7-6.4-10.4-6.4-17.2s2.1-12.5,6.4-17.2c4.3-4.7,9.7-7.1,16.4-7.1s11.1,1.9,15,5.7V10.8h15.8v76.8h-15.6v-5.2h-.2c-3.9,4.4-8.9,6.5-15,6.5s-12.1-2.3-16.4-7ZM487.4,57c-2,2-3.1,4.6-3.1,7.8s1,5.7,2.9,7.7c2,2,4.6,3,7.8,3s5.6-1,7.6-3c2-2,3-4.6,3-7.7s-1-5.7-3.1-7.8c-2-2-4.6-3-7.5-3s-5.6,1-7.6,3Z"/>
  <path class="st0" d="M525.3,98.8l12.9-6.3c2.4,3.9,6.5,5.9,12.4,5.9s5.3-.9,7.6-2.6c2.4-1.8,3.5-4.5,3.5-8.1v-3.4c-2.8,3.1-7.8,4.6-15,4.6s-12.1-2.3-16.4-7c-4.3-4.7-6.4-10.4-6.4-17.2s2.1-12.5,6.4-17.2c4.3-4.7,9.7-7.1,16.4-7.1s10.8,1.8,14.7,5.4h.3v-4.1h15.8v47.1c0,7.4-2.5,13.2-7.4,17.2-4.9,4-11.4,6.1-19.5,6.1-13.1,0-21.6-4.4-25.4-13.3ZM543.9,57c-2,2-3.1,4.6-3.1,7.8s1,5.7,2.9,7.7c2,2,4.6,3,7.8,3s5.6-1,7.6-3c2-2,3-4.6,3-7.7s-1-5.7-3.1-7.8c-2-2-4.6-3-7.5-3s-5.6,1-7.6,3Z"/>
  <path class="st0" d="M629.8,66.9h-33.2c0,3.2,1,5.6,3.1,7.1,2.1,1.5,4.4,2.3,6.8,2.3s4.6-.3,6.1-1c1.5-.7,3.2-2,5.1-4l11.4,5.7c-4.8,8-12.7,12-23.7,12s-12.8-2.4-17.8-7.1c-4.9-4.7-7.4-10.4-7.4-17.1s2.5-12.4,7.4-17.1c4.9-4.8,10.9-7.1,17.8-7.1s13.2,2.1,17.7,6.3c4.6,4.2,6.8,10.2,6.8,18s0,1.8,0,2.1ZM597,58.1h17.4c-.4-2.4-1.3-4.2-2.8-5.5-1.5-1.3-3.5-1.9-5.8-1.9s-4.7.7-6.3,2.1c-1.5,1.4-2.4,3.2-2.5,5.3Z"/>
  <path class="st0" d="M635,41.8v-17h15.8v17h9.6v12.1h-9.6v14.6c0,4.2,1.2,6.3,3.6,6.3s1.2-.1,1.9-.4c.7-.2,1.2-.5,1.5-.7l.5-.4,3.9,12.8c-3.4,1.9-7.3,2.9-11.6,2.9s-5.5-.5-7.7-1.6c-2.1-1-3.8-2.4-4.9-4.2-1.1-1.8-1.9-3.6-2.4-5.5-.5-1.9-.7-4-.7-6.2v-17.6h-6.6v-12.1h6.6Z"/>
  <path class="st1" d="M673.5,76.8c1.4,0,2.6.5,3.6,1.5,1,1,1.5,2.2,1.5,3.6s-.5,2.6-1.5,3.5c-1,1-2.2,1.5-3.6,1.5s-2.6-.5-3.5-1.5c-1-1-1.5-2.2-1.5-3.5s.5-2.6,1.5-3.6c1-1,2.2-1.5,3.5-1.5Z"/>
  <path class="st1" d="M683.1,83.4c-2.1-2.3-3.2-5.1-3.2-8.5s1.1-6.2,3.2-8.5c2.1-2.3,4.8-3.5,8.1-3.5s5.4.9,7.4,2.8v-17.4h7.8v37.8h-7.7v-2.5h0c-1.9,2.1-4.4,3.2-7.4,3.2s-5.9-1.1-8.1-3.4ZM689.8,71.1c-1,1-1.5,2.3-1.5,3.8s.5,2.8,1.5,3.8c1,1,2.2,1.5,3.8,1.5s2.8-.5,3.8-1.5c1-1,1.5-2.3,1.5-3.8s-.5-2.8-1.5-3.8c-1-1-2.2-1.5-3.7-1.5s-2.7.5-3.8,1.5Z"/>
  <path class="st1" d="M732.2,76h-16.3c0,1.6.5,2.8,1.5,3.5,1,.8,2.1,1.1,3.3,1.1s2.3-.2,3-.5c.7-.3,1.6-1,2.5-2l5.6,2.8c-2.4,3.9-6.2,5.9-11.7,5.9s-6.3-1.2-8.8-3.5c-2.4-2.3-3.6-5.1-3.6-8.4s1.2-6.1,3.6-8.4c2.4-2.3,5.4-3.5,8.8-3.5s6.5,1,8.7,3.1c2.2,2.1,3.4,5,3.4,8.8s0,.9,0,1ZM716.1,71.7h8.6c-.2-1.2-.6-2.1-1.4-2.7-.7-.6-1.7-1-2.9-1s-2.3.3-3.1,1c-.8.7-1.2,1.5-1.2,2.6Z"/>
</svg>