<svg width="166" height="45" viewBox="0 0 166 45" fill="none" xmlns="http://www.w3.org/2000/svg">
    <g clip-path="url(#clip0_48_960)">
        <path d="M49.0692 43.2002C53.627 43.2002 60.7275 42.66 64.6616 42.349C64.8695 42.3654 65.0614 42.2181 65.0933 42.0052L69.0914 20.97C69.2513 20.1515 69.3313 19.3003 69.3313 18.4654C69.3313 13.2926 64.5656 11.3609 56.7135 11.3609C50.3006 11.3609 46.1747 11.9011 43.408 12.5232C43.2481 12.5559 43.1202 12.6705 43.0882 12.8342L41.9527 18.8092C41.8888 19.1202 42.0807 19.2021 42.3525 19.153C44.6394 18.7764 48.6694 18.1053 52.9073 18.1053C56.4096 18.1053 58.8404 18.711 58.8404 20.839C58.8404 21.5102 58.5846 22.8198 58.3926 23.802H54.6985C44.1277 23.802 36.2276 26.0119 36.2276 35.932C36.2436 42.1526 42.0007 43.2002 49.0692 43.2002ZM51.548 37.1761C48.5575 37.1761 46.8144 36.6523 46.8144 34.3605C46.8144 30.1044 49.4051 29.1713 53.2592 29.1713H57.4011L55.9459 36.7996C54.4746 37.0616 53.0193 37.1761 51.548 37.1761ZM20.7152 42.349H30.3265C30.5983 42.349 30.7583 42.2508 30.8062 42.0052L34.8043 20.97C34.9642 20.1515 35.0442 19.3003 35.0442 18.4654C35.0442 13.2926 31.334 11.3609 27.4799 11.3609C23.4179 11.3609 19.8516 12.2613 15.9975 13.7345L18.5243 0.42586C18.5883 0.0984631 18.4283 0.000244141 18.1725 0.000244141H8.54521C8.27334 0.000244141 8.11342 0.0984631 8.06544 0.344011L4.24333 20.5117C4.19535 20.7408 4.32329 20.8718 4.56317 20.8227C7.64965 20.1351 13.5667 18.891 17.9326 18.891C21.8507 18.891 23.9296 19.4804 23.9296 22.0013C23.9296 22.6888 23.8497 23.3764 23.5458 25.0297L20.3314 41.9234C20.2994 42.2508 20.4433 42.349 20.7152 42.349ZM0.533153 42.349H10.1444C10.4163 42.349 10.5762 42.2508 10.6242 42.0052L14.2544 22.8525C14.2864 22.6725 14.1904 22.5579 13.9505 22.5742C7.66564 22.9999 3.13987 26.2902 2.0524 32.0033L0.181327 41.9234C0.117358 42.2508 0.261287 42.349 0.533153 42.349ZM71.1224 42.349H80.7336C81.0055 42.349 81.1654 42.2508 81.2134 42.0052L85.2914 20.4789C86.011 20.1188 88.9856 19.0711 91.1765 19.0711C92.3759 19.0711 94.5508 19.4967 94.5508 22.0177C94.5508 22.7052 94.4709 23.3927 94.167 25.0461L90.9526 41.9398C90.8886 42.2672 91.0486 42.3654 91.3044 42.3654H100.916C101.188 42.3654 101.347 42.2672 101.395 42.0216L105.457 20.4953C106.177 20.1351 109.2 19.0875 111.375 19.0875C112.574 19.0875 114.749 19.5131 114.749 22.034C114.749 22.7216 114.669 23.4091 114.365 25.0625L111.135 41.9561C111.071 42.2835 111.231 42.3818 111.486 42.3818H121.098C121.37 42.3818 121.53 42.2835 121.578 42.038L125.576 21.0027C125.735 20.1843 125.815 19.333 125.815 18.4982C125.815 13.3253 122.169 11.3937 118.299 11.3937C114.413 11.3937 109.599 12.6705 104.946 15.1096C103.714 12.5232 101.172 11.3937 98.1171 11.3937C94.6948 11.3937 89.8971 12.5395 85.3234 15.0605L85.8351 12.425C85.8991 12.1139 85.7392 11.9993 85.4833 11.9993H76.9275C76.6556 11.9993 76.4957 12.1139 76.4478 12.3431L70.8025 41.9561C70.7066 42.2508 70.8505 42.349 71.1224 42.349ZM139.841 43.2002C144.398 43.2002 151.499 42.66 155.433 42.349C155.641 42.3654 155.833 42.2181 155.865 42.0052L159.863 20.97C160.023 20.1515 160.103 19.3003 160.103 18.4654C160.103 13.2926 155.337 11.3609 147.485 11.3609C141.072 11.3609 136.946 11.9011 134.179 12.5232C134.019 12.5559 133.891 12.6705 133.859 12.8342L132.724 18.8092C132.66 19.1202 132.852 19.2021 133.124 19.153C135.411 18.7764 139.441 18.1053 143.679 18.1053C147.181 18.1053 149.612 18.711 149.612 20.839C149.612 21.5102 149.356 22.8198 149.164 23.802H145.47C134.899 23.802 126.999 26.0119 126.999 35.932C127.015 42.1526 132.772 43.2002 139.841 43.2002ZM142.319 37.1761C139.329 37.1761 137.586 36.6523 137.586 34.3605C137.586 30.1044 140.176 29.1713 144.03 29.1713H148.172L146.717 36.7996C145.246 37.0616 143.791 37.1761 142.319 37.1761Z" fill="#F04137"/>
    </g>
    <defs>
        <clipPath id="clip0_48_960">
            <rect width="165.6" height="45" fill="white"/>
        </clipPath>
    </defs>
</svg>
