<svg xmlns="http://www.w3.org/2000/svg" viewBox="0 0 226.77 28.1"><defs><style>.cls-1{fill:#1d1d1b;}.cls-2{fill:#006eb7;}</style></defs><title>Element 1</title><g id="Ebene_2" data-name="Ebene 2"><g id="Layer_1" data-name="Layer 1"><path class="cls-1" d="M10.75,14.05a12.13,12.13,0,0,1-1.81.24c-.77.05-1.71.08-2.84.08-3.2,0-5.14-.56-5.8-1.68l1.29-.58A4,4,0,0,0,3.87,13a20,20,0,0,0,2.61.14A25.5,25.5,0,0,0,9.63,13c1.67-.22,2.51-.74,2.51-1.56s-.85-1.33-2.55-1.56c-.31,0-.73-.06-1.25-.09l-1.9,0a16.42,16.42,0,0,1-4-.36C.8,8.94,0,8.06,0,6.74S.81,4.58,2.43,4.12a18,18,0,0,1,4.3-.37c.77,0,1.44,0,2,0s1,.08,1.41.14a4.14,4.14,0,0,1,2.91,1.42L11.78,6a4.45,4.45,0,0,0-2.3-.78A19.43,19.43,0,0,0,6.92,5a25.93,25.93,0,0,0-3.14.13c-1.65.23-2.46.75-2.46,1.57S2.16,8.07,3.85,8.3l1.24.08c.53,0,1.16,0,1.91,0a16.58,16.58,0,0,1,4,.36c1.6.43,2.4,1.3,2.4,2.63S12.54,13.63,10.75,14.05Z"/><path class="cls-1" d="M23.42,14.37a8.66,8.66,0,0,1-4.79-1.08A4.7,4.7,0,0,1,16.7,9.06a4.73,4.73,0,0,1,1.93-4.23,8.57,8.57,0,0,1,4.79-1.08,8.75,8.75,0,0,1,4.8,1.08,4.72,4.72,0,0,1,1.92,4.23,4.7,4.7,0,0,1-1.92,4.23A8.75,8.75,0,0,1,23.42,14.37Zm0-9.32a8,8,0,0,0-3.72.66A3.44,3.44,0,0,0,18,9.06a3.44,3.44,0,0,0,1.69,3.35,8,8,0,0,0,3.72.66,8.11,8.11,0,0,0,3.75-.66,3.45,3.45,0,0,0,1.67-3.35,3.47,3.47,0,0,0-1.67-3.35A8.11,8.11,0,0,0,23.41,5.05Z"/><path class="cls-1" d="M45.85,12.86a9.2,9.2,0,0,1-5.42,1.51,8.66,8.66,0,0,1-4.79-1.08,4.72,4.72,0,0,1-1.92-4.23V3.75H35V9.06a3.44,3.44,0,0,0,1.69,3.35,8,8,0,0,0,3.72.66,8,8,0,0,0,3.73-.66,3.44,3.44,0,0,0,1.69-3.35V3.75h1.3V14.37h-1.3Z"/><path class="cls-1" d="M64.22,9.06A3.47,3.47,0,0,0,62.53,5.7a8.19,8.19,0,0,0-3.73-.65,8,8,0,0,0-3.73.66,3.46,3.46,0,0,0-1.68,3.35v5.31H52.08V3.75h1.31V5.26A9.14,9.14,0,0,1,58.8,3.75a8.69,8.69,0,0,1,4.79,1.08,4.74,4.74,0,0,1,1.93,4.23v5.31h-1.3Z"/><path class="cls-1" d="M81.19,12.86a9.17,9.17,0,0,1-5.41,1.51A8.7,8.7,0,0,1,71,13.29a4.74,4.74,0,0,1-1.92-4.23A4.72,4.72,0,0,1,71,4.83a8.7,8.7,0,0,1,4.8-1.08,9.17,9.17,0,0,1,5.41,1.51V0H82.5V14.37H81.19ZM75.78,5.05a8,8,0,0,0-3.73.66,3.44,3.44,0,0,0-1.69,3.35,3.44,3.44,0,0,0,1.69,3.35,8,8,0,0,0,3.73.66,8,8,0,0,0,3.73-.66,3.45,3.45,0,0,0,1.68-3.35,3.47,3.47,0,0,0-1.68-3.35A8,8,0,0,0,75.78,5.05Z"/><path class="cls-1" d="M136.89,14.05a13.17,13.17,0,0,1-1.81.24c-.76.05-1.71.08-2.83.08q-4.8,0-5.79-1.68l1.28-.58A4.06,4.06,0,0,0,130,13a20.11,20.11,0,0,0,2.6.13,26.1,26.1,0,0,0,3.16-.13c1.67-.23,2.51-.75,2.51-1.57s-.85-1.33-2.55-1.56a12.08,12.08,0,0,0-1.25-.08c-.52,0-1.15,0-1.9,0a16.36,16.36,0,0,1-4-.36c-1.6-.42-2.41-1.3-2.41-2.62s.82-2.17,2.44-2.62a18,18,0,0,1,4.29-.37c.78,0,1.45,0,2,0s1,.08,1.41.14a4.18,4.18,0,0,1,2.91,1.41l-1.27.6a4.36,4.36,0,0,0-2.29-.78A19.87,19.87,0,0,0,133.06,5a26,26,0,0,0-3.14.13c-1.63.23-2.46.75-2.46,1.57s.85,1.33,2.54,1.55a11.89,11.89,0,0,0,1.25.08c.51,0,1.15,0,1.9,0a16.38,16.38,0,0,1,4,.36c1.61.43,2.41,1.3,2.41,2.63S138.69,13.63,136.89,14.05Z"/><path class="cls-1" d="M144.2,9.72a3.44,3.44,0,0,0,2.09,2.87,8.76,8.76,0,0,0,3.28.48c.53,0,1,0,1.41-.05s.76-.08,1.07-.13a3.76,3.76,0,0,0,2.21-1.28l1.21.58q-1.47,2.18-5.9,2.18a8.66,8.66,0,0,1-4.79-1.08,4.72,4.72,0,0,1-1.92-4.23,4.68,4.68,0,0,1,1.92-4.23,8.57,8.57,0,0,1,4.79-1.08,8.72,8.72,0,0,1,4.8,1.08,4.75,4.75,0,0,1,1.93,4.23c0,.11,0,.21,0,.32s0,.22,0,.34Zm5.37-4.67a8.76,8.76,0,0,0-3.28.48A3.44,3.44,0,0,0,144.2,8.4H155a3.47,3.47,0,0,0-2.09-2.87A8.89,8.89,0,0,0,149.57,5.05Z"/><path class="cls-1" d="M171.77,6.56a3.62,3.62,0,0,0-2.2-1.3,6.46,6.46,0,0,0-1.06-.16c-.43,0-.91,0-1.45,0a8,8,0,0,0-3.74.66,3.46,3.46,0,0,0-1.68,3.35v5.31h-1.31V3.75h1.31V5.26a9.14,9.14,0,0,1,5.42-1.51q4.47,0,5.94,2.23Z"/><path class="cls-1" d="M180.49,14.37,174.35,3.75h1.5l5.55,9.61L187,3.75h1.49l-6.14,10.62Z"/><path class="cls-1" d="M191.56,0h1.31V1.31h-1.31Zm0,3.76h1.31V14.37h-1.31Z"/><path class="cls-1" d="M203.9,14.37a8.66,8.66,0,0,1-4.79-1.08,4.74,4.74,0,0,1-1.92-4.23,4.7,4.7,0,0,1,1.92-4.23,8.57,8.57,0,0,1,4.79-1.08c3,0,5,.74,6,2.23l-1.24.58a3.63,3.63,0,0,0-2.19-1.3,11.36,11.36,0,0,0-2.53-.21,8,8,0,0,0-3.73.66,3.43,3.43,0,0,0-1.68,3.35,3.42,3.42,0,0,0,1.68,3.35,8,8,0,0,0,3.73.66c.54,0,1,0,1.42-.05s.78-.08,1.08-.13a3.75,3.75,0,0,0,2.22-1.32l1.24.58C208.88,13.63,206.88,14.37,203.9,14.37Z"/><path class="cls-1" d="M214.68,9.72a3.46,3.46,0,0,0,2.1,2.87,8.74,8.74,0,0,0,3.27.48c.54,0,1,0,1.42-.05s.76-.08,1.07-.13a3.79,3.79,0,0,0,2.21-1.28l1.2.58q-1.45,2.18-5.9,2.18a8.69,8.69,0,0,1-4.79-1.08,4.74,4.74,0,0,1-1.92-4.23,4.7,4.7,0,0,1,1.92-4.23,8.6,8.6,0,0,1,4.79-1.08,8.72,8.72,0,0,1,4.8,1.08,4.72,4.72,0,0,1,1.92,4.23v.32c0,.11,0,.22,0,.34Zm5.37-4.67a8.74,8.74,0,0,0-3.27.48,3.46,3.46,0,0,0-2.1,2.87h10.75a3.44,3.44,0,0,0-2.08-2.87A9,9,0,0,0,220.05,5.05Z"/><path class="cls-2" d="M98.87,14.31c.08-.26.3-.34.73-.26a24.71,24.71,0,0,0,6,.41c2-.21,3.28-.89,3.66-2a2.12,2.12,0,0,0-.58-2.23l-1.64-1.77c-.14-.17-.14-.35,0-.46,0,0,6.76-5.39,7.29-5.58a.55.55,0,0,1,.63.13,6,6,0,0,1,1.79,3.28,8.63,8.63,0,0,1-.73,5.82c-1.12,1.83-2.83,3-5.62,3.94-3,.95-7.47.16-7.47.16a34.31,34.31,0,0,1-3.66-.85C99,14.8,98.79,14.58,98.87,14.31Z"/><path class="cls-2" d="M110.7,3.39c-.08.26-.3.34-.73.25a25.12,25.12,0,0,0-6-.38c-2,.22-3.28.9-3.66,2a2.12,2.12,0,0,0,.59,2.23l1.65,1.78a.28.28,0,0,1,0,.45s-6.73,5.41-7.26,5.6a.56.56,0,0,1-.64-.12,6,6,0,0,1-1.79-3.28,8.57,8.57,0,0,1,.7-5.82c1.11-1.83,2.82-3,5.61-4S106.59,2,106.59,2a36.93,36.93,0,0,1,3.66.83C110.6,2.9,110.78,3.11,110.7,3.39Z"/><path class="cls-1" d="M40.28,25.93H38.54v1.61h1.94V28H38V23.56h2.42V24H38.54v1.41h1.74Z"/><path class="cls-1" d="M44.12,23.56v2.65c0,1,.45,1.42,1.05,1.42s1.08-.44,1.08-1.42V23.56h.59v2.61c0,1.37-.72,1.93-1.7,1.93s-1.6-.52-1.6-1.91V23.56Z"/><path class="cls-1" d="M50.16,23.61a7,7,0,0,1,1.11-.09,1.78,1.78,0,0,1,1.29.37,1.09,1.09,0,0,1,.35.85,1.17,1.17,0,0,1-.84,1.14v0a1.14,1.14,0,0,1,.66.9A7.06,7.06,0,0,0,53.07,28h-.59A5.55,5.55,0,0,1,52.17,27c-.13-.62-.36-.85-.89-.87h-.55V28h-.57Zm.57,2.05h.59c.62,0,1-.35,1-.86s-.42-.83-1-.84a2.23,2.23,0,0,0-.58.06Z"/><path class="cls-1" d="M59.89,25.75a2.09,2.09,0,0,1-2.08,2.35,2.05,2.05,0,0,1-2-2.27,2.13,2.13,0,0,1,2.08-2.35A2,2,0,0,1,59.89,25.75Zm-3.46.07c0,.95.51,1.81,1.42,1.81s1.43-.84,1.43-1.86S58.82,24,57.86,24,56.43,24.84,56.43,25.82Z"/><path class="cls-1" d="M63,23.61a6,6,0,0,1,1.1-.09,1.81,1.81,0,0,1,1.26.38,1.2,1.2,0,0,1,.39.93,1.33,1.33,0,0,1-.35,1,1.86,1.86,0,0,1-1.37.48,2.22,2.22,0,0,1-.46,0V28H63Zm.57,2.15a1.64,1.64,0,0,0,.48,0c.69,0,1.12-.34,1.12-.95s-.42-.88-1-.88a2.2,2.2,0,0,0-.55.05Z"/><path class="cls-1" d="M71.13,25.93H69.39v1.61h1.94V28H68.82V23.56h2.41V24H69.39v1.41h1.74Z"/><path class="cls-1" d="M75.12,26.62,74.66,28h-.6l1.52-4.47h.7L77.8,28h-.61l-.48-1.41Zm1.47-.45-.44-1.29c-.1-.29-.16-.55-.23-.81h0c-.07.26-.14.53-.23.81l-.44,1.29Z"/><path class="cls-1" d="M80.79,28V23.56h.63l1.43,2.26a12,12,0,0,1,.8,1.45h0c0-.6-.06-1.14-.06-1.84V23.56h.54V28h-.58l-1.42-2.27a15.18,15.18,0,0,1-.84-1.5h0c0,.57,0,1.11,0,1.85V28Z"/><path class="cls-2" d="M95.24,26.07c0-.63-.08-1.38-.07-1.94h0c-.15.53-.33,1.09-.56,1.7L93.8,28h-.44l-.72-2.13c-.22-.63-.4-1.21-.53-1.74h0c0,.56,0,1.31-.09,2L91.89,28h-.55l.31-4.47h.74l.77,2.16c.18.55.33,1,.45,1.5h0c.12-.45.28-.94.48-1.5l.79-2.16h.74L95.91,28h-.57Z"/><path class="cls-2" d="M99.7,23.56v2.65c0,1,.44,1.42,1,1.42s1.08-.44,1.08-1.42V23.56h.59v2.61c0,1.37-.72,1.93-1.69,1.93s-1.61-.52-1.61-1.91V23.56Z"/><path class="cls-2" d="M105.66,27.33a2,2,0,0,0,1,.29c.59,0,.94-.31.94-.76s-.25-.66-.84-.9c-.74-.26-1.19-.63-1.19-1.26a1.29,1.29,0,0,1,1.45-1.22,2.1,2.1,0,0,1,1,.22l-.17.47A1.75,1.75,0,0,0,107,24c-.6,0-.84.37-.84.67s.28.62.89.87c.76.29,1.15.65,1.15,1.31s-.52,1.29-1.57,1.29a2.3,2.3,0,0,1-1.14-.29Z"/><path class="cls-2" d="M111.9,23.56V28h-.58V23.56Z"/><path class="cls-2" d="M118.36,27.88a2.73,2.73,0,0,1-1.17.22A2.1,2.1,0,0,1,115,25.83a2.23,2.23,0,0,1,2.34-2.35,2.4,2.4,0,0,1,1.06.2l-.14.47a2.2,2.2,0,0,0-.91-.19,1.67,1.67,0,0,0-1.74,1.85,1.62,1.62,0,0,0,1.72,1.8,2.18,2.18,0,0,0,.94-.19Z"/><path class="cls-1" d="M126,23.61a8.85,8.85,0,0,1,1.23-.09,2.58,2.58,0,0,1,1.81.56,2,2,0,0,1,.63,1.61,2.32,2.32,0,0,1-.64,1.73,2.76,2.76,0,0,1-2,.65A7.94,7.94,0,0,1,126,28Zm.58,4a3.27,3.27,0,0,0,.58,0A1.72,1.72,0,0,0,129,25.7,1.6,1.6,0,0,0,127.22,24a3.52,3.52,0,0,0-.68.06Z"/><path class="cls-1" d="M133.28,23.56V28h-.58V23.56Z"/><path class="cls-1" d="M136.53,27.33a2,2,0,0,0,1,.29c.59,0,.94-.31.94-.76s-.24-.66-.84-.9-1.18-.63-1.18-1.26a1.29,1.29,0,0,1,1.45-1.22,2,2,0,0,1,1,.22l-.16.47a1.75,1.75,0,0,0-.85-.21c-.6,0-.83.37-.83.67s.27.62.88.87c.76.29,1.14.65,1.14,1.31s-.51,1.29-1.57,1.29a2.26,2.26,0,0,1-1.13-.29Z"/><path class="cls-1" d="M143.05,24.05h-1.36v-.49H145v.49h-1.36v4h-.59Z"/><path class="cls-1" d="M147.82,23.61a7.23,7.23,0,0,1,1.11-.09,1.82,1.82,0,0,1,1.3.37,1.12,1.12,0,0,1,.34.85,1.17,1.17,0,0,1-.84,1.14v0a1.1,1.1,0,0,1,.66.9,9.63,9.63,0,0,0,.34,1.23h-.59a5.82,5.82,0,0,1-.3-1.07c-.13-.62-.37-.85-.9-.87h-.54V28h-.58Zm.58,2.05H149c.62,0,1-.35,1-.86s-.42-.83-1-.84a2.08,2.08,0,0,0-.57.06Z"/><path class="cls-1" d="M154.29,23.56V28h-.58V23.56Z"/><path class="cls-1" d="M157.62,23.61a6,6,0,0,1,1-.09,1.86,1.86,0,0,1,1.24.33.92.92,0,0,1,.36.79,1.05,1.05,0,0,1-.75,1h0a1.16,1.16,0,0,1,.92,1.12,1.19,1.19,0,0,1-.38.9,2.2,2.2,0,0,1-1.54.42,6,6,0,0,1-.9-.06Zm.58,1.84h.52c.61,0,1-.32,1-.75s-.4-.74-1-.74a2.19,2.19,0,0,0-.51.05Zm0,2.14a3,3,0,0,0,.48,0c.6,0,1.15-.22,1.15-.87s-.52-.87-1.16-.87h-.47Z"/><path class="cls-1" d="M164.12,23.56v2.65c0,1,.44,1.42,1,1.42s1.09-.44,1.09-1.42V23.56h.59v2.61c0,1.37-.72,1.93-1.69,1.93s-1.61-.52-1.61-1.91V23.56Z"/><path class="cls-1" d="M171,24.05h-1.36v-.49H173v.49h-1.36v4H171Z"/><path class="cls-1" d="M176.36,23.56V28h-.58V23.56Z"/><path class="cls-1" d="M183.5,25.75a2.09,2.09,0,0,1-2.08,2.35,2.05,2.05,0,0,1-2-2.27,2.13,2.13,0,0,1,2.09-2.35A2,2,0,0,1,183.5,25.75Zm-3.47.07c0,.95.52,1.81,1.43,1.81s1.43-.84,1.43-1.86S182.43,24,181.47,24,180,24.84,180,25.82Z"/><path class="cls-1" d="M186.58,28V23.56h.62l1.43,2.26a10.9,10.9,0,0,1,.81,1.45h0c0-.6-.06-1.14-.06-1.84V23.56h.55V28h-.59l-1.43-2.27a15,15,0,0,1-.83-1.5h0c0,.57.05,1.11.05,1.85V28Z"/></g></g></svg>